<?xml version="1.0" encoding="UTF-8" standalone="no"?>
<!DOCTYPE svg PUBLIC "-//W3C//DTD SVG 1.1//EN" "http://www.w3.org/Graphics/SVG/1.1/DTD/svg11.dtd">
<svg width="32px" height="32px" version="1.1" xmlns="http://www.w3.org/2000/svg" xmlns:xlink="http://www.w3.org/1999/xlink" xml:space="preserve" xmlns:serif="http://www.serif.com/" style="fill-rule:evenodd;clip-rule:evenodd;stroke-linejoin:round;stroke-miterlimit:2;">
    <g transform="matrix(0.00237535,0,0,0.00237535,16,16)">
        <g id="Language-Icon-Fireworks--Converted-" serif:id="Language-Icon-Fireworks [Converted]" transform="matrix(1,0,0,1,-5025,-5820.83)">
            <clipPath id="_clip1">
                <rect x="0" y="0" width="10050" height="11641.7"/>
            </clipPath>
            <g clip-path="url(#_clip1)">
                <g transform="matrix(4.16667,0,0,4.16667,0,0)">
                    <path d="M1204.57,359.16L271.83,29.96L271.83,2060.05L1204.57,1758.28L1204.57,359.16Z" style="fill-rule:nonzero;"/>
                    <path d="M1182.18,358.14L2150.63,28.95L2150.63,2059.04L1182.18,1757.27L1182.18,358.14Z" style="fill:white;fill-rule:nonzero;"/>
                    <path d="M29.96,2415.43L1182.18,2031.38L1182.18,357.92L29.96,741.97L29.96,2415.43Z" style="fill:white;fill-rule:nonzero;"/>
                    <path d="M1707.21,2440.71L1870.51,2709.37L1956.62,2459.8L1707.21,2440.71Z" style="fill-rule:nonzero;"/>
                    <path d="M421.74,934.75C415.62,928.74 429.71,983.86 449.32,1003.69C484.09,1038.77 511.25,1043.29 525.71,1043.87C557.71,1045.15 597.2,1035.9 620.65,1026.07C643.34,1016.39 683.1,996.09 698.15,966.48C701.34,960.15 710.05,949.52 704.58,923.26C700.43,903.06 687.57,895.99 671.89,897.11C656.21,898.17 608.74,910.83 585.78,917.89C562.81,924.86 515.5,939.26 494.88,943.73C474.31,948.19 428.96,941.66 421.74,934.75Z" style="fill-rule:nonzero;"/>
                    <path d="M1003.1,1593.67C994.02,1590.37 806.16,1512.55 779.53,1499.8C757.74,1489.32 704.31,1466.73 679.17,1456.47C749.98,1347.29 794.68,1264.9 800.63,1252.35C811.64,1229.39 886.59,1082.73 888.34,1073.7C890.04,1064.55 892.17,1030.75 890.52,1022.72C888.87,1014.53 861.39,1030.27 824.08,1042.92C786.71,1055.52 715.69,1101.71 688.26,1107.5C660.73,1113.24 572.75,1146.57 527.73,1161.51C482.71,1176.45 397.55,1202.44 362.52,1211.9C327.44,1221.36 296.82,1222.11 277.2,1228.06C277.2,1228.06 279.81,1255.54 285.02,1263.78C290.17,1272.02 308.73,1292.22 330.31,1297.86C351.89,1303.54 387.61,1301.26 403.88,1297.54C420.14,1293.76 448.31,1280 452.09,1273.99C455.91,1267.88 450.12,1249.06 456.55,1243.37C463.04,1237.74 548.78,1217.7 581.15,1207.92C613.52,1197.97 737.43,1155.29 754.23,1157.47C748.91,1175.12 649.24,1372.54 617.14,1431.44C585.03,1490.33 398.51,1749.42 358.8,1795.08C328.66,1829.79 255.62,1918.61 230.32,1938.65C236.7,1940.41 281.93,1936.53 290.17,1931.43C341.52,1899.8 427.05,1793.33 454.59,1760.9C536.45,1664.9 608.37,1564.06 665.4,1477.52L665.46,1477.52C676.57,1482.15 766.4,1555.34 789.84,1571.56C813.28,1587.77 905.78,1639.38 925.82,1647.94C945.86,1656.61 1022.88,1692.12 1026.12,1680.1C1029.36,1667.98 1012.19,1597.12 1003.1,1593.67Z" style="fill-rule:nonzero;"/>
                    <path d="M569,2572C587,2583 604,2592 623,2601C661,2620 704,2640 745,2655C801,2676 857,2693 913,2706C944,2713 978,2719 1011,2724C1014,2724 1103,2735 1121,2735L1211,2735C1246,2732 1279,2730 1314,2725C1342,2721 1373,2716 1403,2709C1425,2704 1448,2699 1470,2692C1491,2686 1515,2678 1538,2670C1553,2665 1569,2658 1585,2652C1598,2646 1614,2639 1629,2633C1647,2625 1668,2614 1688,2604C1704,2596 1722,2586 1739,2576C1752,2569 1782,2546 1798,2546C1816,2546 1828,2562 1828,2576C1828,2605 1789,2614 1771,2627C1752,2640 1729,2650 1709,2661C1669,2682 1628,2700 1589,2715C1538,2734 1482,2752 1432,2764C1413,2768 1394,2773 1375,2776C1365,2778 1261,2794 1232,2794L1100,2794C1065,2791 1028,2787 993,2782C962,2777 929,2771 898,2764C874,2759 848,2752 825,2745C785,2734 746,2720 708,2705C639,2679 567,2645 499,2600C487,2592 486,2584 486,2575C486,2560 497,2546 515,2546C531,2546 563,2569 569,2572Z"/>
                    <path d="M1212,354L1212,2034C1211,2039 1209,2044 1205,2049C1203,2052 1199,2056 1196,2057C1171,2067 45,2445 30,2445C18,2445 7,2437 1,2424C1,2423 0,2422 0,2420L0,739C2,734 3,727 7,723C15,712 29,710 38,707C55,701 1164,329 1180,329C1190,329 1212,336 1212,354ZM1151,2009L61,2372L61,764L1151,401L1151,2009Z"/>
                    <path d="M2181,32L2181,2055C2180,2078 2164,2088 2149,2088C2136,2088 2042,2056 2026,2051C1900,2012 1773,1973 1648,1934C1620,1925 1591,1916 1564,1907C1540,1900 1514,1892 1490,1884C1383,1851 1274,1818 1167,1782C1163,1781 1153,1767 1153,1764L1153,351C1155,346 1157,340 1162,336C1170,327 1513,213 1648,168C1684,155 2135,0 2149,0C2167,0 2181,13 2181,32ZM2120,2017L1213,1735L1213,380L2120,72L2120,2017Z"/>
                    <path d="M2411.21,2440.71L1199.5,2054.5L1204.57,373.2L2411.21,757.25L2411.21,2440.71Z" style="fill-rule:nonzero;"/>
                    <path d="M1728.98,853.19L1885.09,900.48L2169.5,1925.5L2009.15,1876.85L1951.54,1666.42L1620.16,1565.98L1548.9,1737.4L1388.5,1688.74L1728.98,853.19ZM1800.35,1124.55L1681.42,1412.01L1900.07,1478.29L1800.35,1124.55Z" style="fill:white;"/>
                </g>
            </g>
        </g>
        <g id="Language-Icon-Fireworks--Converted-1" serif:id="Language-Icon-Fireworks [Converted]">
        </g>
    </g>
</svg>
