<?xml version="1.0" encoding="utf-8"?>
<!-- Generator: Adobe Illustrator 24.0.2, SVG Export Plug-In . SVG Version: 6.00 Build 0)  -->
<svg version="1.1" id="Layer_1" xmlns="http://www.w3.org/2000/svg" xmlns:xlink="http://www.w3.org/1999/xlink" x="0px" y="0px"
	 viewBox="0 0 599.17 282.48" style="enable-background:new 0 0 599.17 282.48;" xml:space="preserve">
<style type="text/css">
	.st0{fill:#4C809B;}
	.st1{fill:#EF4C24;}
	.st2{fill:#EFD3CD;}
	.st3{fill:#F7A593;}
</style>
<g>
	<path class="st0" d="M49.23,251.84c0.92-0.19,2.25-0.29,3.51-0.29c1.95,0,3.21,0.36,4.09,1.15c0.71,0.63,1.11,1.6,1.11,2.69
		c0,1.87-1.18,3.11-2.67,3.61v0.06c1.09,0.38,1.74,1.39,2.08,2.86c0.46,1.97,0.8,3.34,1.09,3.88h-1.89
		c-0.23-0.4-0.55-1.62-0.94-3.38c-0.42-1.95-1.18-2.69-2.83-2.75h-1.72v6.13h-1.83V251.84z M51.05,258.29h1.87
		c1.95,0,3.19-1.07,3.19-2.69c0-1.83-1.32-2.62-3.25-2.65c-0.88,0-1.51,0.08-1.81,0.17V258.29z"/>
	<path class="st0" d="M76.86,258.81c0,3.02,1.64,5.73,4.51,5.73c2.9,0,4.54-2.67,4.54-5.88c0-2.81-1.47-5.75-4.51-5.75
		C78.38,252.91,76.86,255.7,76.86,258.81z"/>
	<path class="st0" d="M111.39,251.65h1.83v12.62h6.05v1.53h-7.87V251.65z"/>
	<path class="st0" d="M146.79,259.17h-5.5v5.1h6.13v1.53h-7.96v-14.15h7.64v1.53h-5.82v4.47h5.5V259.17z"/>
	<path class="st0" d="M167.96,251.82c0.88-0.15,2.04-0.27,3.51-0.27c1.81,0,3.13,0.42,3.97,1.18c0.78,0.67,1.24,1.7,1.24,2.96
		c0,1.28-0.38,2.29-1.09,3.02c-0.97,1.03-2.54,1.55-4.33,1.55c-0.55,0-1.05-0.02-1.47-0.13v5.67h-1.83V251.82z M169.79,258.64
		c0.4,0.11,0.9,0.15,1.51,0.15c2.2,0,3.55-1.07,3.55-3.02c0-1.87-1.32-2.77-3.34-2.77c-0.8,0-1.41,0.06-1.72,0.15V258.64z"/>
	<path class="st0" d="M197.3,251.65h1.83v12.62h6.05v1.53h-7.87V251.65z"/>
	<path class="st0" d="M227.66,261.35l-1.47,4.45h-1.89l4.81-14.15h2.2l4.83,14.15h-1.95l-1.51-4.45H227.66z M232.3,259.92
		l-1.39-4.07c-0.31-0.92-0.52-1.76-0.73-2.58h-0.04c-0.21,0.84-0.44,1.7-0.71,2.56l-1.39,4.09H232.3z"/>
	<path class="st0" d="M257.88,265.8v-6l-4.47-8.15h2.08l1.99,3.91c0.55,1.07,0.97,1.93,1.41,2.92h0.04c0.4-0.92,0.88-1.85,1.43-2.92
		l2.04-3.91h2.08l-4.75,8.13v6.03H257.88z"/>
	<path class="st0" d="M285.94,251.65v14.15h-1.83v-14.15H285.94z"/>
	<path class="st0" d="M307.29,265.8v-14.15h1.99l4.54,7.16c1.05,1.66,1.87,3.15,2.54,4.6l0.04-0.02c-0.17-1.89-0.21-3.61-0.21-5.82
		v-5.92h1.72v14.15h-1.85l-4.49-7.18c-0.99-1.57-1.93-3.19-2.65-4.72l-0.06,0.02c0.11,1.78,0.15,3.49,0.15,5.84v6.05H307.29z"/>
	<path class="st0" d="M350.05,265.17c-0.82,0.29-2.44,0.78-4.35,0.78c-2.14,0-3.91-0.55-5.29-1.87c-1.22-1.18-1.97-3.07-1.97-5.27
		c0.02-4.22,2.92-7.31,7.66-7.31c1.64,0,2.92,0.36,3.53,0.65l-0.44,1.49c-0.76-0.34-1.7-0.61-3.13-0.61c-3.44,0-5.69,2.14-5.69,5.69
		c0,3.59,2.16,5.71,5.46,5.71c1.2,0,2.02-0.17,2.44-0.38v-4.22h-2.88v-1.47h4.66V265.17z"/>
	<path class="st0" d="M393.37,263.58c0.82,0.5,2.02,0.92,3.28,0.92c1.87,0,2.96-0.99,2.96-2.41c0-1.32-0.76-2.08-2.67-2.81
		c-2.31-0.82-3.74-2.02-3.74-4.01c0-2.2,1.83-3.84,4.58-3.84c1.45,0,2.5,0.34,3.13,0.69l-0.5,1.49c-0.46-0.25-1.41-0.67-2.69-0.67
		c-1.93,0-2.67,1.15-2.67,2.12c0,1.32,0.86,1.97,2.81,2.73c2.39,0.92,3.61,2.08,3.61,4.16c0,2.18-1.62,4.07-4.96,4.07
		c-1.36,0-2.86-0.4-3.61-0.9L393.37,263.58z"/>
	<path class="st0" d="M425.29,265.8v-6l-4.47-8.15h2.08l2,3.91c0.55,1.07,0.97,1.93,1.41,2.92h0.04c0.4-0.92,0.88-1.85,1.43-2.92
		l2.04-3.91h2.08l-4.75,8.13v6.03H425.29z"/>
	<path class="st0" d="M451.15,263.58c0.82,0.5,2.02,0.92,3.28,0.92c1.87,0,2.96-0.99,2.96-2.41c0-1.32-0.76-2.08-2.67-2.81
		c-2.31-0.82-3.74-2.02-3.74-4.01c0-2.2,1.83-3.84,4.58-3.84c1.45,0,2.5,0.34,3.13,0.69l-0.5,1.49c-0.46-0.25-1.41-0.67-2.69-0.67
		c-1.93,0-2.67,1.15-2.67,2.12c0,1.32,0.86,1.97,2.81,2.73c2.39,0.92,3.61,2.08,3.61,4.16c0,2.18-1.62,4.07-4.96,4.07
		c-1.37,0-2.86-0.4-3.61-0.9L451.15,263.58z"/>
	<path class="st0" d="M482.6,253.2h-4.3v-1.55h10.48v1.55h-4.33v12.6h-1.85V253.2z"/>
	<path class="st0" d="M516.85,259.17h-5.5v5.1h6.13v1.53h-7.96v-14.15h7.64v1.53h-5.82v4.47h5.5V259.17z"/>
	<path class="st0" d="M548.94,259.59c-0.11-1.97-0.23-4.35-0.21-6.11h-0.06c-0.48,1.66-1.07,3.42-1.78,5.37l-2.5,6.87H543
		l-2.29-6.74c-0.67-1.99-1.24-3.82-1.64-5.5h-0.04c-0.04,1.76-0.15,4.14-0.27,6.26l-0.38,6.07h-1.74l0.99-14.15h2.33l2.41,6.84
		c0.59,1.74,1.07,3.3,1.43,4.77h0.06c0.36-1.43,0.86-2.98,1.49-4.77l2.52-6.84h2.33l0.88,14.15h-1.78L548.94,259.59z"/>
	<path class="st1" d="M414.22,59.72c0,2.53-2.05,4.58-4.58,4.58c-2.53,0-4.58-2.05-4.58-4.58c0-2.53,2.05-4.58,4.58-4.58
		C412.17,55.14,414.22,57.19,414.22,59.72z"/>
	<path class="st1" d="M401.38,59.7c0,2.53-2.05,4.58-4.58,4.58c-2.53,0-4.58-2.05-4.58-4.58c0-2.53,2.05-4.58,4.58-4.58
		C399.33,55.12,401.38,57.17,401.38,59.7z"/>
	<path class="st2" d="M414.28,72.53c0,2.53-2.05,4.58-4.58,4.58c-2.53,0-4.58-2.05-4.58-4.58c0-2.53,2.05-4.58,4.58-4.58
		C412.23,67.95,414.28,70,414.28,72.53z"/>
	<path class="st1" d="M401.45,72.51c0,2.53-2.05,4.58-4.58,4.58c-2.53,0-4.58-2.05-4.58-4.58c0-2.53,2.05-4.58,4.58-4.58
		C399.4,67.93,401.45,69.98,401.45,72.51z"/>
	<path class="st1" d="M414.34,84.97c0,2.53-2.05,4.58-4.58,4.58c-2.53,0-4.58-2.05-4.58-4.58c0-2.53,2.05-4.58,4.58-4.58
		C412.29,80.39,414.34,82.44,414.34,84.97z"/>
	<path class="st3" d="M414.41,97.78c0,2.53-2.05,4.58-4.58,4.58c-2.53,0-4.58-2.05-4.58-4.58c0-2.53,2.05-4.58,4.58-4.58
		C412.35,93.2,414.41,95.25,414.41,97.78z"/>
	<path class="st1" d="M414.59,110.1c0,2.53-2.05,4.58-4.58,4.58c-2.53,0-4.58-2.05-4.58-4.58c0-2.53,2.05-4.58,4.58-4.58
		C412.54,105.51,414.59,107.56,414.59,110.1z"/>
	<path class="st1" d="M401.76,110.07c0,2.53-2.05,4.58-4.58,4.58c-2.53,0-4.58-2.05-4.58-4.58c0-2.53,2.05-4.58,4.58-4.58
		C399.71,105.49,401.76,107.54,401.76,110.07z"/>
	<path class="st1" d="M414.66,122.91c0,2.53-2.05,4.58-4.58,4.58c-2.53,0-4.58-2.05-4.58-4.58c0-2.53,2.05-4.58,4.58-4.58
		C412.6,118.32,414.66,120.38,414.66,122.91z"/>
	<path class="st1" d="M401.82,122.89c0,2.53-2.05,4.58-4.58,4.58c-2.53,0-4.58-2.05-4.58-4.58c0-2.53,2.05-4.58,4.58-4.58
		C399.77,118.3,401.82,120.36,401.82,122.89z"/>
	<path class="st3" d="M414.72,135.35c0,2.53-2.05,4.58-4.58,4.58c-2.53,0-4.58-2.05-4.58-4.58c0-2.53,2.05-4.58,4.58-4.58
		C412.67,130.76,414.72,132.81,414.72,135.35z"/>
	<path class="st1" d="M414.78,148.16c0,2.53-2.05,4.58-4.58,4.58c-2.53,0-4.58-2.05-4.58-4.58c0-2.53,2.05-4.58,4.58-4.58
		C412.73,143.57,414.78,145.63,414.78,148.16z"/>
	<path class="st1" d="M401.95,148.14c0,2.53-2.05,4.58-4.58,4.58c-2.53,0-4.58-2.05-4.58-4.58c0-2.53,2.05-4.58,4.58-4.58
		C399.9,143.55,401.95,145.61,401.95,148.14z"/>
	<path class="st2" d="M414.84,160.6c0,2.53-2.05,4.58-4.58,4.58c-2.53,0-4.58-2.05-4.58-4.58c0-2.53,2.05-4.58,4.58-4.58
		C412.79,156.01,414.84,158.06,414.84,160.6z"/>
	<path class="st1" d="M414.91,173.41c0,2.53-2.05,4.58-4.58,4.58c-2.53,0-4.58-2.05-4.58-4.58c0-2.53,2.05-4.58,4.58-4.58
		C412.85,168.82,414.91,170.88,414.91,173.41z"/>
	<path class="st1" d="M414.97,185.85c0,2.53-2.05,4.58-4.58,4.58c-2.53,0-4.58-2.05-4.58-4.58c0-2.53,2.05-4.58,4.58-4.58
		C412.92,181.26,414.97,183.31,414.97,185.85z"/>
	<path class="st3" d="M402.13,185.82c0,2.53-2.05,4.58-4.58,4.58c-2.53,0-4.58-2.05-4.58-4.58c0-2.53,2.05-4.58,4.58-4.58
		C400.08,181.24,402.13,183.29,402.13,185.82z"/>
	<path class="st1" d="M415.03,198.66c0,2.53-2.05,4.58-4.58,4.58c-2.53,0-4.58-2.05-4.58-4.58c0-2.53,2.05-4.58,4.58-4.58
		C412.98,194.07,415.03,196.13,415.03,198.66z"/>
	<path class="st1" d="M402.2,198.64c0,2.53-2.05,4.58-4.58,4.58c-2.53,0-4.58-2.05-4.58-4.58c0-2.53,2.05-4.58,4.58-4.58
		C400.15,194.05,402.2,196.11,402.2,198.64z"/>
	<path class="st1" d="M415.22,210.97c0,2.53-2.05,4.58-4.58,4.58c-2.53,0-4.58-2.05-4.58-4.58c0-2.53,2.05-4.58,4.58-4.58
		C413.17,206.39,415.22,208.44,415.22,210.97z"/>
	<path class="st1" d="M402.38,210.95c0,2.53-2.05,4.58-4.58,4.58c-2.53,0-4.58-2.05-4.58-4.58c0-2.53,2.05-4.58,4.58-4.58
		C400.33,206.37,402.38,208.42,402.38,210.95z"/>
	<path class="st1" d="M460.15,215.27c-2.53,0-4.58-2.05-4.58-4.58c0-2.53,2.05-4.58,4.58-4.58c2.53,0,4.58,2.05,4.58,4.58
		C464.73,213.22,462.68,215.27,460.15,215.27z"/>
	<path class="st1" d="M460.17,202.44c-2.53,0-4.58-2.05-4.58-4.58c0-2.53,2.05-4.58,4.58-4.58c2.53,0,4.58,2.05,4.58,4.58
		C464.75,200.39,462.7,202.44,460.17,202.44z"/>
	<path class="st2" d="M447.71,215.33c-2.53,0-4.58-2.05-4.58-4.58c0-2.53,2.05-4.58,4.58-4.58c2.53,0,4.58,2.05,4.58,4.58
		C452.29,213.28,450.24,215.33,447.71,215.33z"/>
	<path class="st1" d="M447.73,202.5c-2.53,0-4.58-2.05-4.58-4.58c0-2.53,2.05-4.58,4.58-4.58c2.53,0,4.58,2.05,4.58,4.58
		C452.31,200.45,450.26,202.5,447.73,202.5z"/>
	<path class="st1" d="M434.9,215.4c-2.53,0-4.58-2.05-4.58-4.58c0-2.53,2.05-4.58,4.58-4.58c2.53,0,4.58,2.05,4.58,4.58
		C439.48,213.35,437.43,215.4,434.9,215.4z"/>
	<path class="st2" d="M434.92,202.56c-2.53,0-4.58-2.05-4.58-4.58c0-2.53,2.05-4.58,4.58-4.58c2.53,0,4.58,2.05,4.58,4.58
		C439.5,200.51,437.45,202.56,434.92,202.56z"/>
	<path class="st1" d="M422.58,215.58c-2.53,0-4.58-2.05-4.58-4.58c0-2.53,2.05-4.58,4.58-4.58c2.53,0,4.58,2.05,4.58,4.58
		C427.17,213.53,425.11,215.58,422.58,215.58z"/>
	<path class="st1" d="M422.6,202.75c-2.53,0-4.58-2.05-4.58-4.58c0-2.53,2.05-4.58,4.58-4.58c2.53,0,4.58,2.05,4.58,4.58
		C427.19,200.7,425.14,202.75,422.6,202.75z"/>
	<path class="st3" d="M513.33,59.7c0,2.53-2.05,4.58-4.58,4.58c-2.53,0-4.58-2.05-4.58-4.58c0-2.53,2.05-4.58,4.58-4.58
		C511.28,55.12,513.33,57.17,513.33,59.7z"/>
	<path class="st1" d="M500.5,59.68c0,2.53-2.05,4.58-4.58,4.58c-2.53,0-4.58-2.05-4.58-4.58c0-2.53,2.05-4.58,4.58-4.58
		C498.45,55.1,500.5,57.15,500.5,59.68z"/>
	<path class="st1" d="M513.4,72.52c0,2.53-2.05,4.58-4.58,4.58c-2.53,0-4.58-2.05-4.58-4.58c0-2.53,2.05-4.58,4.58-4.58
		C511.34,67.93,513.4,69.99,513.4,72.52z"/>
	<path class="st2" d="M500.56,72.5c0,2.53-2.05,4.58-4.58,4.58c-2.53,0-4.58-2.05-4.58-4.58c0-2.53,2.05-4.58,4.58-4.58
		C498.51,67.91,500.56,69.96,500.56,72.5z"/>
	<path class="st1" d="M513.46,84.95c0,2.53-2.05,4.58-4.58,4.58c-2.53,0-4.58-2.05-4.58-4.58c0-2.53,2.05-4.58,4.58-4.58
		C511.41,80.37,513.46,82.42,513.46,84.95z"/>
	<path class="st1" d="M500.62,84.93c0,2.53-2.05,4.58-4.58,4.58c-2.53,0-4.58-2.05-4.58-4.58c0-2.53,2.05-4.58,4.58-4.58
		C498.57,80.35,500.62,82.4,500.62,84.93z"/>
	<path class="st3" d="M513.52,97.77c0,2.53-2.05,4.58-4.58,4.58c-2.53,0-4.58-2.05-4.58-4.58c0-2.53,2.05-4.58,4.58-4.58
		C511.47,93.18,513.52,95.24,513.52,97.77z"/>
	<path class="st2" d="M500.69,97.75c0,2.53-2.05,4.58-4.58,4.58c-2.53,0-4.58-2.05-4.58-4.58c0-2.53,2.05-4.58,4.58-4.58
		C498.64,93.16,500.69,95.21,500.69,97.75z"/>
	<path class="st1" d="M513.71,110.08c0,2.53-2.05,4.58-4.58,4.58c-2.53,0-4.58-2.05-4.58-4.58c0-2.53,2.05-4.58,4.58-4.58
		C511.66,105.5,513.71,107.55,513.71,110.08z"/>
	<path class="st1" d="M500.87,110.06c0,2.53-2.05,4.58-4.58,4.58c-2.53,0-4.58-2.05-4.58-4.58c0-2.53,2.05-4.58,4.58-4.58
		C498.82,105.48,500.87,107.53,500.87,110.06z"/>
	<path class="st1" d="M513.77,122.89c0,2.53-2.05,4.58-4.58,4.58c-2.53,0-4.58-2.05-4.58-4.58c0-2.53,2.05-4.58,4.58-4.58
		C511.72,118.31,513.77,120.36,513.77,122.89z"/>
	<path class="st3" d="M500.94,122.87c0,2.53-2.05,4.58-4.58,4.58c-2.53,0-4.58-2.05-4.58-4.58c0-2.53,2.05-4.58,4.58-4.58
		C498.89,118.29,500.94,120.34,500.94,122.87z"/>
	<path class="st2" d="M513.83,135.33c0,2.53-2.05,4.58-4.58,4.58c-2.53,0-4.58-2.05-4.58-4.58c0-2.53,2.05-4.58,4.58-4.58
		C511.78,130.75,513.83,132.8,513.83,135.33z"/>
	<path class="st1" d="M501,135.31c0,2.53-2.05,4.58-4.58,4.58c-2.53,0-4.58-2.05-4.58-4.58c0-2.53,2.05-4.58,4.58-4.58
		C498.95,130.73,501,132.78,501,135.31z"/>
	<path class="st1" d="M513.9,148.14c0,2.53-2.05,4.58-4.58,4.58c-2.53,0-4.58-2.05-4.58-4.58c0-2.53,2.05-4.58,4.58-4.58
		C511.84,143.56,513.9,145.61,513.9,148.14z"/>
	<path class="st1" d="M501.06,148.12c0,2.53-2.05,4.58-4.58,4.58c-2.53,0-4.58-2.05-4.58-4.58c0-2.53,2.05-4.58,4.58-4.58
		C499.01,143.54,501.06,145.59,501.06,148.12z"/>
	<path class="st3" d="M513.96,160.58c0,2.53-2.05,4.58-4.58,4.58c-2.53,0-4.58-2.05-4.58-4.58c0-2.53,2.05-4.58,4.58-4.58
		C511.91,156,513.96,158.05,513.96,160.58z"/>
	<path class="st3" d="M501.12,160.56c0,2.53-2.05,4.58-4.58,4.58c-2.53,0-4.58-2.05-4.58-4.58c0-2.53,2.05-4.58,4.58-4.58
		C499.07,155.98,501.12,158.03,501.12,160.56z"/>
	<path class="st2" d="M514.02,173.39c0,2.53-2.05,4.58-4.58,4.58c-2.53,0-4.58-2.05-4.58-4.58c0-2.53,2.05-4.58,4.58-4.58
		C511.97,168.81,514.02,170.86,514.02,173.39z"/>
	<path class="st1" d="M501.19,173.37c0,2.53-2.05,4.58-4.58,4.58c-2.53,0-4.58-2.05-4.58-4.58c0-2.53,2.05-4.58,4.58-4.58
		C499.14,168.79,501.19,170.84,501.19,173.37z"/>
	<path class="st1" d="M514.08,185.83c0,2.53-2.05,4.58-4.58,4.58c-2.53,0-4.58-2.05-4.58-4.58c0-2.53,2.05-4.58,4.58-4.58
		C512.03,181.25,514.08,183.3,514.08,185.83z"/>
	<path class="st2" d="M501.25,185.81c0,2.53-2.05,4.58-4.58,4.58c-2.53,0-4.58-2.05-4.58-4.58c0-2.53,2.05-4.58,4.58-4.58
		C499.2,181.23,501.25,183.28,501.25,185.81z"/>
	<path class="st3" d="M514.15,198.64c0,2.53-2.05,4.58-4.58,4.58c-2.53,0-4.58-2.05-4.58-4.58c0-2.53,2.05-4.58,4.58-4.58
		C512.09,194.06,514.15,196.11,514.15,198.64z"/>
	<path class="st3" d="M501.31,198.62c0,2.53-2.05,4.58-4.58,4.58c-2.53,0-4.58-2.05-4.58-4.58c0-2.53,2.05-4.58,4.58-4.58
		C499.26,194.04,501.31,196.09,501.31,198.62z"/>
	<path class="st1" d="M514.33,210.95c0,2.53-2.05,4.58-4.58,4.58c-2.53,0-4.58-2.05-4.58-4.58c0-2.53,2.05-4.58,4.58-4.58
		C512.28,206.37,514.33,208.42,514.33,210.95z"/>
	<path class="st1" d="M501.5,210.93c0,2.53-2.05,4.58-4.58,4.58c-2.53,0-4.58-2.05-4.58-4.58c0-2.53,2.05-4.58,4.58-4.58
		C499.45,206.35,501.5,208.4,501.5,210.93z"/>
	<path class="st1" d="M484.15,76.94c-2.53,0-4.58-2.05-4.58-4.58c0-2.53,2.05-4.58,4.58-4.58c2.53,0,4.58,2.05,4.58,4.58
		C488.73,74.89,486.68,76.94,484.15,76.94z"/>
	<path class="st3" d="M484.17,64.11c-2.53,0-4.58-2.05-4.58-4.58c0-2.53,2.05-4.58,4.58-4.58c2.53,0,4.58,2.05,4.58,4.58
		C488.75,62.05,486.7,64.11,484.17,64.11z"/>
	<path class="st3" d="M471.71,77c-2.53,0-4.58-2.05-4.58-4.58c0-2.53,2.05-4.58,4.58-4.58c2.53,0,4.58,2.05,4.58,4.58
		C476.29,74.95,474.24,77,471.71,77z"/>
	<path class="st1" d="M471.73,64.17c-2.53,0-4.58-2.05-4.58-4.58c0-2.53,2.05-4.58,4.58-4.58c2.53,0,4.58,2.05,4.58,4.58
		C476.31,62.12,474.26,64.17,471.73,64.17z"/>
	<path class="st1" d="M458.9,77.06c-2.53,0-4.58-2.05-4.58-4.58c0-2.53,2.05-4.58,4.58-4.58c2.53,0,4.58,2.05,4.58,4.58
		C463.48,75.01,461.43,77.06,458.9,77.06z"/>
	<path class="st1" d="M458.92,64.23c-2.53,0-4.58-2.05-4.58-4.58c0-2.53,2.05-4.58,4.58-4.58c2.53,0,4.58,2.05,4.58,4.58
		C463.5,62.18,461.45,64.23,458.92,64.23z"/>
	<path class="st1" d="M547.31,76.94c-2.53,0-4.58-2.05-4.58-4.58c0-2.53,2.05-4.58,4.58-4.58c2.53,0,4.58,2.05,4.58,4.58
		C551.9,74.89,549.84,76.94,547.31,76.94z"/>
	<path class="st1" d="M547.33,64.11c-2.53,0-4.58-2.05-4.58-4.58c0-2.53,2.05-4.58,4.58-4.58c2.53,0,4.58,2.05,4.58,4.58
		C551.92,62.05,549.86,64.11,547.33,64.11z"/>
	<path class="st3" d="M534.87,77c-2.53,0-4.58-2.05-4.58-4.58c0-2.53,2.05-4.58,4.58-4.58c2.53,0,4.58,2.05,4.58,4.58
		C539.46,74.95,537.41,77,534.87,77z"/>
	<path class="st2" d="M534.9,64.17c-2.53,0-4.58-2.05-4.58-4.58c0-2.53,2.05-4.58,4.58-4.58c2.53,0,4.58,2.05,4.58,4.58
		C539.48,62.12,537.43,64.17,534.9,64.17z"/>
	<path class="st1" d="M522.06,77.06c-2.53,0-4.58-2.05-4.58-4.58c0-2.53,2.05-4.58,4.58-4.58c2.53,0,4.58,2.05,4.58,4.58
		C526.65,75.01,524.59,77.06,522.06,77.06z"/>
	<path class="st1" d="M522.08,64.23c-2.53,0-4.58-2.05-4.58-4.58c0-2.53,2.05-4.58,4.58-4.58c2.53,0,4.58,2.05,4.58,4.58
		C526.67,62.18,524.61,64.23,522.08,64.23z"/>
	<path class="st1" d="M382.38,96.36c0,2.53-2.05,4.58-4.58,4.58c-2.53,0-4.58-2.05-4.58-4.58c0-2.53,2.05-4.58,4.58-4.58
		C380.33,91.78,382.38,93.83,382.38,96.36z"/>
	<path class="st1" d="M386.72,163.36c0,2.53-2.05,4.58-4.58,4.58c-2.53,0-4.58-2.05-4.58-4.58c0-2.53,2.05-4.58,4.58-4.58
		C384.67,158.78,386.72,160.83,386.72,163.36z"/>
	<path class="st3" d="M381.05,195.36c0,2.53-2.05,4.58-4.58,4.58c-2.53,0-4.58-2.05-4.58-4.58c0-2.53,2.05-4.58,4.58-4.58
		C379,190.78,381.05,192.83,381.05,195.36z"/>
	<path class="st2" d="M363.05,149.03c0,2.53-2.05,4.58-4.58,4.58c-2.53,0-4.58-2.05-4.58-4.58c0-2.53,2.05-4.58,4.58-4.58
		C361,144.45,363.05,146.5,363.05,149.03z"/>
	<path class="st1" d="M365.05,135.7c0,2.53-2.05,4.58-4.58,4.58c-2.53,0-4.58-2.05-4.58-4.58c0-2.53,2.05-4.58,4.58-4.58
		C363,131.12,365.05,133.17,365.05,135.7z"/>
	<path class="st1" d="M362.88,122.53c0,2.53-2.05,4.58-4.58,4.58c-2.53,0-4.58-2.05-4.58-4.58c0-2.53,2.05-4.58,4.58-4.58
		C360.83,117.95,362.88,120,362.88,122.53z"/>
	<path class="st1" d="M359.72,109.53c0,2.53-2.05,4.58-4.58,4.58c-2.53,0-4.58-2.05-4.58-4.58c0-2.53,2.05-4.58,4.58-4.58
		C357.67,104.95,359.72,107,359.72,109.53z"/>
	<path class="st3" d="M353.89,97.7c0,2.53-2.05,4.58-4.58,4.58c-2.53,0-4.58-2.05-4.58-4.58c0-2.53,2.05-4.58,4.58-4.58
		C351.84,93.12,353.89,95.17,353.89,97.7z"/>
	<path class="st1" d="M346.39,86.7c0,2.53-2.05,4.58-4.58,4.58c-2.53,0-4.58-2.05-4.58-4.58c0-2.53,2.05-4.58,4.58-4.58
		C344.34,82.12,346.39,84.17,346.39,86.7z"/>
	<path class="st1" d="M337.05,77.36c0,2.53-2.05,4.58-4.58,4.58c-2.53,0-4.58-2.05-4.58-4.58c0-2.53,2.05-4.58,4.58-4.58
		C335,72.78,337.05,74.83,337.05,77.36z"/>
	<path class="st1" d="M326.22,69.7c0,2.53-2.05,4.58-4.58,4.58c-2.53,0-4.58-2.05-4.58-4.58c0-2.53,2.05-4.58,4.58-4.58
		C324.17,65.12,326.22,67.17,326.22,69.7z"/>
	<path class="st1" d="M314.06,64.03c0,2.53-2.05,4.58-4.58,4.58c-2.53,0-4.58-2.05-4.58-4.58c0-2.53,2.05-4.58,4.58-4.58
		C312.01,59.45,314.06,61.5,314.06,64.03z"/>
	<path class="st2" d="M301.22,60.7c0,2.53-2.05,4.58-4.58,4.58c-2.53,0-4.58-2.05-4.58-4.58c0-2.53,2.05-4.58,4.58-4.58
		C299.17,56.12,301.22,58.17,301.22,60.7z"/>
	<path class="st1" d="M288.06,59.53c0,2.53-2.05,4.58-4.58,4.58c-2.53,0-4.58-2.05-4.58-4.58c0-2.53,2.05-4.58,4.58-4.58
		C286.01,54.95,288.06,57,288.06,59.53z"/>
	<path class="st1" d="M275.06,60.03c0,2.53-2.05,4.58-4.58,4.58c-2.53,0-4.58-2.05-4.58-4.58c0-2.53,2.05-4.58,4.58-4.58
		C273.01,55.45,275.06,57.5,275.06,60.03z"/>
	<path class="st2" d="M261.89,62.7c0,2.53-2.05,4.58-4.58,4.58c-2.53,0-4.58-2.05-4.58-4.58c0-2.53,2.05-4.58,4.58-4.58
		C259.84,58.12,261.89,60.17,261.89,62.7z"/>
	<path class="st1" d="M249.89,69.2c0,2.53-2.05,4.58-4.58,4.58c-2.53,0-4.58-2.05-4.58-4.58c0-2.53,2.05-4.58,4.58-4.58
		C247.84,64.62,249.89,66.67,249.89,69.2z"/>
	<path class="st2" d="M239.06,77.2c0,2.53-2.05,4.58-4.58,4.58c-2.53,0-4.58-2.05-4.58-4.58c0-2.53,2.05-4.58,4.58-4.58
		C237.01,72.62,239.06,74.67,239.06,77.2z"/>
	<path class="st1" d="M229.56,86.53c0,2.53-2.05,4.58-4.58,4.58c-2.53,0-4.58-2.05-4.58-4.58c0-2.53,2.05-4.58,4.58-4.58
		C227.51,81.95,229.56,84,229.56,86.53z"/>
	<path class="st2" d="M221.72,97.36c0,2.53-2.05,4.58-4.58,4.58c-2.53,0-4.58-2.05-4.58-4.58c0-2.53,2.05-4.58,4.58-4.58
		C219.67,92.78,221.72,94.83,221.72,97.36z"/>
	<path class="st1" d="M216.06,109.53c0,2.53-2.05,4.58-4.58,4.58c-2.53,0-4.58-2.05-4.58-4.58c0-2.53,2.05-4.58,4.58-4.58
		C214.01,104.95,216.06,107,216.06,109.53z"/>
	<path class="st2" d="M212.56,122.2c0,2.53-2.05,4.58-4.58,4.58c-2.53,0-4.58-2.05-4.58-4.58c0-2.53,2.05-4.58,4.58-4.58
		C210.51,117.62,212.56,119.67,212.56,122.2z"/>
	<path class="st1" d="M211.56,135.36c0,2.53-2.05,4.58-4.58,4.58c-2.53,0-4.58-2.05-4.58-4.58c0-2.53,2.05-4.58,4.58-4.58
		C209.51,130.78,211.56,132.83,211.56,135.36z"/>
	<path class="st1" d="M212.56,148.53c0,2.53-2.05,4.58-4.58,4.58c-2.53,0-4.58-2.05-4.58-4.58c0-2.53,2.05-4.58,4.58-4.58
		C210.51,143.95,212.56,146,212.56,148.53z"/>
	<path class="st2" d="M216.06,161.53c0,2.53-2.05,4.58-4.58,4.58c-2.53,0-4.58-2.05-4.58-4.58c0-2.53,2.05-4.58,4.58-4.58
		C214.01,156.95,216.06,159,216.06,161.53z"/>
	<path class="st1" d="M221.72,173.53c0,2.53-2.05,4.58-4.58,4.58c-2.53,0-4.58-2.05-4.58-4.58c0-2.53,2.05-4.58,4.58-4.58
		C219.67,168.95,221.72,171,221.72,173.53z"/>
	<path class="st1" d="M229.39,184.53c0,2.53-2.05,4.58-4.58,4.58c-2.53,0-4.58-2.05-4.58-4.58c0-2.53,2.05-4.58,4.58-4.58
		C227.34,179.95,229.39,182,229.39,184.53z"/>
	<path class="st1" d="M238.56,193.7c0,2.53-2.05,4.58-4.58,4.58c-2.53,0-4.58-2.05-4.58-4.58c0-2.53,2.05-4.58,4.58-4.58
		C236.51,189.12,238.56,191.17,238.56,193.7z"/>
	<path class="st2" d="M249.39,202.53c0,2.53-2.05,4.58-4.58,4.58c-2.53,0-4.58-2.05-4.58-4.58c0-2.53,2.05-4.58,4.58-4.58
		C247.34,197.95,249.39,200,249.39,202.53z"/>
	<path class="st1" d="M261.56,207.03c0,2.53-2.05,4.58-4.58,4.58c-2.53,0-4.58-2.05-4.58-4.58c0-2.53,2.05-4.58,4.58-4.58
		C259.51,202.45,261.56,204.5,261.56,207.03z"/>
	<path class="st1" d="M274.39,210.7c0,2.53-2.05,4.58-4.58,4.58c-2.53,0-4.58-2.05-4.58-4.58c0-2.53,2.05-4.58,4.58-4.58
		C272.34,206.12,274.39,208.17,274.39,210.7z"/>
	<path class="st1" d="M287.72,211.7c0,2.53-2.05,4.58-4.58,4.58c-2.53,0-4.58-2.05-4.58-4.58c0-2.53,2.05-4.58,4.58-4.58
		C285.67,207.12,287.72,209.17,287.72,211.7z"/>
	<path class="st2" d="M300.89,210.53c0,2.53-2.05,4.58-4.58,4.58c-2.53,0-4.58-2.05-4.58-4.58c0-2.53,2.05-4.58,4.58-4.58
		C298.84,205.95,300.89,208,300.89,210.53z"/>
	<path class="st1" d="M313.72,207.2c0,2.53-2.05,4.58-4.58,4.58c-2.53,0-4.58-2.05-4.58-4.58c0-2.53,2.05-4.58,4.58-4.58
		C311.67,202.62,313.72,204.67,313.72,207.2z"/>
	<path class="st1" d="M326.05,201.53c0,2.53-2.05,4.58-4.58,4.58c-2.53,0-4.58-2.05-4.58-4.58c0-2.53,2.05-4.58,4.58-4.58
		C324,196.95,326.05,199,326.05,201.53z"/>
	<path class="st2" d="M337.05,194.03c0,2.53-2.05,4.58-4.58,4.58c-2.53,0-4.58-2.05-4.58-4.58c0-2.53,2.05-4.58,4.58-4.58
		C335,189.45,337.05,191.5,337.05,194.03z"/>
	<path class="st1" d="M346.55,184.7c0,2.53-2.05,4.58-4.58,4.58c-2.53,0-4.58-2.05-4.58-4.58c0-2.53,2.05-4.58,4.58-4.58
		C344.5,180.12,346.55,182.17,346.55,184.7z"/>
	<path class="st1" d="M353.89,174.03c0,2.53-2.05,4.58-4.58,4.58c-2.53,0-4.58-2.05-4.58-4.58c0-2.53,2.05-4.58,4.58-4.58
		C351.84,169.45,353.89,171.5,353.89,174.03z"/>
	<path class="st1" d="M359.55,161.87c0,2.53-2.05,4.58-4.58,4.58c-2.53,0-4.58-2.05-4.58-4.58c0-2.53,2.05-4.58,4.58-4.58
		C357.5,157.28,359.55,159.33,359.55,161.87z"/>
	<path class="st1" d="M367.55,172.7c0,2.53-2.05,4.58-4.58,4.58c-2.53,0-4.58-2.05-4.58-4.58c0-2.53,2.05-4.58,4.58-4.58
		C365.5,168.12,367.55,170.17,367.55,172.7z"/>
	<path class="st1" d="M359.89,185.7c0,2.53-2.05,4.58-4.58,4.58c-2.53,0-4.58-2.05-4.58-4.58c0-2.53,2.05-4.58,4.58-4.58
		C357.84,181.12,359.89,183.17,359.89,185.7z"/>
	<path class="st1" d="M338.39,207.2c0,2.53-2.05,4.58-4.58,4.58c-2.53,0-4.58-2.05-4.58-4.58c0-2.53,2.05-4.58,4.58-4.58
		C336.34,202.62,338.39,204.67,338.39,207.2z"/>
	<path class="st1" d="M364.06,208.03c0,3.64-2.95,6.59-6.59,6.59s-6.59-2.95-6.59-6.59c0-3.64,2.95-6.59,6.59-6.59
		S364.06,204.39,364.06,208.03z"/>
	<path class="st1" d="M375.38,143.2c0,2.53-2.05,4.58-4.58,4.58c-2.53,0-4.58-2.05-4.58-4.58c0-2.53,2.05-4.58,4.58-4.58
		C373.33,138.62,375.38,140.67,375.38,143.2z"/>
	<path class="st1" d="M375.55,127.86c0,2.53-2.05,4.58-4.58,4.58c-2.53,0-4.58-2.05-4.58-4.58c0-2.53,2.05-4.58,4.58-4.58
		C373.5,123.28,375.55,125.33,375.55,127.86z"/>
	<path class="st2" d="M372.72,112.86c0,2.53-2.05,4.58-4.58,4.58c-2.53,0-4.58-2.05-4.58-4.58c0-2.53,2.05-4.58,4.58-4.58
		C370.67,108.28,372.72,110.33,372.72,112.86z"/>
	<path class="st1" d="M359.89,85.36c0,2.53-2.05,4.58-4.58,4.58c-2.53,0-4.58-2.05-4.58-4.58c0-2.53,2.05-4.58,4.58-4.58
		C357.84,80.78,359.89,82.83,359.89,85.36z"/>
	<path class="st3" d="M338.39,63.86c0,2.53-2.05,4.58-4.58,4.58c-2.53,0-4.58-2.05-4.58-4.58c0-2.53,2.05-4.58,4.58-4.58
		C336.34,59.28,338.39,61.33,338.39,63.86z"/>
	<path class="st1" d="M350.72,46.7c0,2.53-2.05,4.59-4.58,4.59c-2.53,0-4.58-2.05-4.58-4.59c0-2.53,2.05-4.58,4.58-4.58
		C348.67,42.12,350.72,44.17,350.72,46.7z"/>
	<path class="st1" d="M324.89,214.7c0,2.53-2.05,4.58-4.58,4.58c-2.53,0-4.58-2.05-4.58-4.58c0-2.53,2.05-4.58,4.58-4.58
		C322.84,210.12,324.89,212.17,324.89,214.7z"/>
	<path class="st1" d="M310.55,219.86c0,2.53-2.05,4.58-4.58,4.58c-2.53,0-4.58-2.05-4.58-4.58c0-2.53,2.05-4.58,4.58-4.58
		C308.5,215.28,310.55,217.33,310.55,219.86z"/>
	<path class="st1" d="M314.22,233.03c0,2.53-2.05,4.58-4.58,4.58c-2.53,0-4.58-2.05-4.58-4.58c0-2.53,2.05-4.58,4.58-4.58
		C312.17,228.45,314.22,230.5,314.22,233.03z"/>
	<path class="st3" d="M295.38,222.53c0,2.53-2.05,4.58-4.58,4.58c-2.53,0-4.58-2.05-4.58-4.58c0-2.53,2.05-4.58,4.58-4.58
		C293.33,217.95,295.38,220,295.38,222.53z"/>
	<path class="st1" d="M280.05,222.7c0,2.53-2.05,4.58-4.58,4.58c-2.53,0-4.58-2.05-4.58-4.58c0-2.53,2.05-4.58,4.58-4.58
		C278,218.12,280.05,220.17,280.05,222.7z"/>
	<path class="st1" d="M265.05,220.03c0,2.53-2.05,4.58-4.58,4.58c-2.53,0-4.58-2.05-4.58-4.58c0-2.53,2.05-4.58,4.58-4.58
		C263,215.45,265.05,217.5,265.05,220.03z"/>
	<path class="st1" d="M248.22,226.03c0,2.53-2.05,4.58-4.58,4.58c-2.53,0-4.58-2.05-4.58-4.58c0-2.53,2.05-4.58,4.58-4.58
		C246.17,221.45,248.22,223.5,248.22,226.03z"/>
	<path class="st1" d="M310.89,51.03c0,2.53-2.05,4.58-4.58,4.58c-2.53,0-4.58-2.05-4.58-4.58c0-2.53,2.05-4.58,4.58-4.58
		C308.84,46.45,310.89,48.5,310.89,51.03z"/>
	<path class="st1" d="M280.72,48.2c0,2.53-2.05,4.58-4.58,4.58c-2.53,0-4.58-2.05-4.58-4.58c0-2.53,2.05-4.58,4.58-4.58
		C278.67,43.62,280.72,45.67,280.72,48.2z"/>
	<path class="st3" d="M260.61,27.03c0,3.76-3.04,6.8-6.8,6.8c-3.76,0-6.8-3.05-6.8-6.8c0-3.76,3.04-6.8,6.8-6.8
		C257.56,20.23,260.61,23.27,260.61,27.03z"/>
	<path class="st3" d="M251.06,54.2c0,2.53-2.05,4.58-4.58,4.58c-2.53,0-4.58-2.05-4.58-4.58c0-2.53,2.05-4.58,4.58-4.58
		C249.01,49.62,251.06,51.67,251.06,54.2z"/>
	<path class="st1" d="M237.72,63.86c0,2.53-2.05,4.58-4.58,4.58c-2.53,0-4.58-2.05-4.58-4.58c0-2.53,2.05-4.58,4.58-4.58
		C235.67,59.28,237.72,61.33,237.72,63.86z"/>
	<path class="st1" d="M225.89,73.53c0,2.53-2.05,4.58-4.58,4.58c-2.53,0-4.58-2.05-4.58-4.58c0-2.53,2.05-4.58,4.58-4.58
		C223.84,68.95,225.89,71,225.89,73.53z"/>
	<path class="st1" d="M224.89,57.53c0,2.53-2.05,4.58-4.58,4.58c-2.53,0-4.58-2.05-4.58-4.58c0-2.53,2.05-4.58,4.58-4.58
		C222.84,52.95,224.89,55,224.89,57.53z"/>
	<path class="st1" d="M208.55,98.2c0,2.53-2.05,4.58-4.58,4.58c-2.53,0-4.58-2.05-4.58-4.58c0-2.53,2.05-4.58,4.58-4.58
		C206.5,93.62,208.55,95.67,208.55,98.2z"/>
	<path class="st1" d="M203.22,112.7c0,2.53-2.05,4.58-4.58,4.58c-2.53,0-4.58-2.05-4.58-4.58c0-2.53,2.05-4.58,4.58-4.58
		C201.17,108.12,203.22,110.17,203.22,112.7z"/>
	<path class="st3" d="M200.55,127.7c0,2.53-2.05,4.58-4.58,4.58c-2.53,0-4.58-2.05-4.58-4.58c0-2.53,2.05-4.58,4.58-4.58
		C198.5,123.12,200.55,125.17,200.55,127.7z"/>
	<path class="st1" d="M203.05,158.03c0,2.53-2.05,4.58-4.58,4.58c-2.53,0-4.58-2.05-4.58-4.58c0-2.53,2.05-4.58,4.58-4.58
		C201,153.45,203.05,155.5,203.05,158.03z"/>
	<path class="st1" d="M208.39,172.2c0,2.53-2.05,4.58-4.58,4.58c-2.53,0-4.58-2.05-4.58-4.58c0-2.53,2.05-4.58,4.58-4.58
		C206.34,167.62,208.39,169.67,208.39,172.2z"/>
	<path class="st3" d="M216.05,185.36c0,2.53-2.05,4.58-4.58,4.58c-2.53,0-4.58-2.05-4.58-4.58c0-2.53,2.05-4.58,4.58-4.58
		C214,180.78,216.05,182.83,216.05,185.36z"/>
	<path class="st1" d="M225.89,197.03c0,2.53-2.05,4.58-4.58,4.58c-2.53,0-4.58-2.05-4.58-4.58c0-2.53,2.05-4.58,4.58-4.58
		C223.84,192.45,225.89,194.5,225.89,197.03z"/>
	<path class="st1" d="M237.55,207.2c0,2.53-2.05,4.58-4.58,4.58c-2.53,0-4.58-2.05-4.58-4.58c0-2.53,2.05-4.58,4.58-4.58
		C235.5,202.62,237.55,204.67,237.55,207.2z"/>
	<path class="st1" d="M206.39,194.2c0,2.53-2.05,4.58-4.58,4.58c-2.53,0-4.58-2.05-4.58-4.58c0-2.53,2.05-4.58,4.58-4.58
		C204.34,189.62,206.39,191.67,206.39,194.2z"/>
	<path class="st1" d="M219.55,207.7c0,2.53-2.05,4.58-4.58,4.58c-2.53,0-4.58-2.05-4.58-4.58c0-2.53,2.05-4.58,4.58-4.58
		C217.5,203.12,219.55,205.17,219.55,207.7z"/>
	<path class="st1" d="M194.89,205.36c0,2.53-2.05,4.58-4.58,4.58c-2.53,0-4.58-2.05-4.58-4.58c0-2.53,2.05-4.58,4.58-4.58
		C192.84,200.78,194.89,202.83,194.89,205.36z"/>
	<path class="st2" d="M192.72,167.36c0,2.53-2.05,4.58-4.58,4.58c-2.53,0-4.58-2.05-4.58-4.58c0-2.53,2.05-4.58,4.58-4.58
		C190.67,162.78,192.72,164.83,192.72,167.36z"/>
	<path class="st1" d="M188.89,148.7c0,2.53-2.05,4.58-4.58,4.58c-2.53,0-4.58-2.05-4.58-4.58c0-2.53,2.05-4.58,4.58-4.58
		C186.84,144.12,188.89,146.17,188.89,148.7z"/>
	<path class="st3" d="M56.03,59.22c1.02,2.32-0.03,5.02-2.35,6.04c-2.32,1.02-5.02-0.03-6.04-2.35c-1.02-2.32,0.03-5.02,2.35-6.04
		C52.31,55.85,55.01,56.9,56.03,59.22z"/>
	<path class="st1" d="M61.25,70.92c1.02,2.32-0.03,5.02-2.35,6.04c-2.32,1.02-5.02-0.03-6.04-2.35c-1.02-2.32,0.03-5.02,2.35-6.04
		C57.53,67.55,60.23,68.6,61.25,70.92z"/>
	<path class="st3" d="M66.32,82.28c1.02,2.32-0.03,5.02-2.35,6.04c-2.32,1.02-5.02-0.03-6.04-2.35c-1.02-2.32,0.03-5.02,2.35-6.04
		C62.6,78.91,65.3,79.96,66.32,82.28z"/>
	<path class="st1" d="M71.54,93.98c1.02,2.32-0.03,5.02-2.35,6.04c-2.32,1.02-5.02-0.03-6.04-2.35c-1.02-2.32,0.03-5.02,2.35-6.04
		C67.81,90.61,70.52,91.66,71.54,93.98z"/>
	<path class="st3" d="M76.67,105.17c1.02,2.32-0.03,5.02-2.35,6.04c-2.32,1.02-5.02-0.03-6.04-2.35c-1.02-2.32,0.03-5.02,2.35-6.04
		C72.95,101.8,75.65,102.86,76.67,105.17z"/>
	<path class="st1" d="M81.89,116.87c1.02,2.32-0.03,5.02-2.35,6.04c-2.32,1.02-5.02-0.03-6.04-2.35c-1.02-2.32,0.03-5.02,2.35-6.04
		C78.16,113.51,80.87,114.56,81.89,116.87z"/>
	<path class="st1" d="M86.96,128.23c1.02,2.32-0.03,5.02-2.35,6.04c-2.32,1.02-5.02-0.03-6.04-2.35c-1.02-2.32,0.03-5.02,2.35-6.04
		C83.23,124.86,85.94,125.92,86.96,128.23z"/>
	<path class="st3" d="M92.18,139.94c1.02,2.32-0.03,5.02-2.35,6.04c-2.32,1.02-5.02-0.03-6.04-2.35c-1.02-2.32,0.03-5.02,2.35-6.04
		C88.45,136.57,91.16,137.62,92.18,139.94z"/>
	<path class="st1" d="M97.24,151.29c1.02,2.32-0.03,5.02-2.35,6.04c-2.32,1.02-5.02-0.03-6.04-2.35c-1.02-2.32,0.03-5.02,2.35-6.04
		C93.52,147.93,96.22,148.98,97.24,151.29z"/>
	<path class="st1" d="M102.46,162.99c1.02,2.32-0.03,5.02-2.35,6.04c-2.32,1.02-5.02-0.03-6.04-2.35c-1.02-2.32,0.03-5.02,2.35-6.04
		C98.74,159.63,101.44,160.68,102.46,162.99z"/>
	<path class="st3" d="M107.53,174.35c1.02,2.32-0.03,5.02-2.35,6.04c-2.32,1.02-5.02-0.03-6.04-2.35c-1.02-2.32,0.03-5.02,2.35-6.04
		C103.8,170.98,106.51,172.04,107.53,174.35z"/>
	<path class="st1" d="M113.42,185.72c1.02,2.32-0.03,5.02-2.35,6.04c-2.32,1.02-5.02-0.03-6.04-2.35c-1.02-2.32,0.03-5.02,2.35-6.04
		C109.69,182.35,112.39,183.41,113.42,185.72z"/>
	<path class="st2" d="M119.23,196.64c1.02,2.32-0.03,5.02-2.35,6.04c-2.32,1.02-5.02-0.03-6.04-2.35c-1.02-2.32,0.03-5.02,2.35-6.04
		C115.5,193.28,118.21,194.33,119.23,196.64z"/>
	<path class="st1" d="M125.27,208.15c1.02,2.32-0.03,5.02-2.35,6.04c-2.32,1.02-5.02-0.03-6.04-2.35c-1.02-2.31,0.03-5.02,2.35-6.04
		C121.55,204.79,124.25,205.84,125.27,208.15z"/>
	<path class="st1" d="M69.17,58.14c1.02,2.32-0.03,5.02-2.35,6.04c-2.32,1.02-5.02-0.03-6.04-2.35c-1.02-2.32,0.03-5.02,2.35-6.04
		C65.44,54.77,68.15,55.82,69.17,58.14z"/>
	<path class="st2" d="M74.38,69.84c1.02,2.32-0.03,5.02-2.35,6.04c-2.32,1.02-5.02-0.03-6.04-2.35c-1.02-2.32,0.03-5.02,2.35-6.04
		C70.66,66.47,73.37,67.53,74.38,69.84z"/>
	<path class="st1" d="M79.45,81.2c1.02,2.32-0.03,5.02-2.35,6.04c-2.32,1.02-5.02-0.03-6.04-2.35c-1.02-2.32,0.03-5.02,2.35-6.04
		C75.73,77.83,78.43,78.88,79.45,81.2z"/>
	<path class="st3" d="M84.67,92.9c1.02,2.32-0.03,5.02-2.35,6.04c-2.32,1.02-5.02-0.03-6.04-2.35c-1.02-2.32,0.03-5.02,2.35-6.04
		C80.95,89.53,83.65,90.58,84.67,92.9z"/>
	<path class="st1" d="M89.8,104.1c1.02,2.32-0.03,5.02-2.35,6.04c-2.32,1.02-5.02-0.03-6.04-2.35c-1.02-2.32,0.03-5.02,2.35-6.04
		C86.08,100.73,88.78,101.78,89.8,104.1z"/>
	<path class="st2" d="M94.69,115.71c1.02,2.32-0.03,5.02-2.35,6.04c-2.32,1.02-5.02-0.03-6.04-2.35c-1.02-2.32,0.03-5.02,2.35-6.04
		C90.97,112.34,93.67,113.4,94.69,115.71z"/>
	<path class="st1" d="M100.09,127.16c1.02,2.32-0.03,5.02-2.35,6.04c-2.32,1.02-5.02-0.03-6.04-2.35c-1.02-2.32,0.03-5.02,2.35-6.04
		C96.36,123.79,99.07,124.84,100.09,127.16z"/>
	<path class="st1" d="M105.31,138.86c1.02,2.32-0.03,5.02-2.35,6.04c-2.32,1.02-5.02-0.03-6.04-2.35c-1.02-2.32,0.03-5.02,2.35-6.04
		C101.58,135.49,104.29,136.54,105.31,138.86z"/>
	<path class="st3" d="M110.38,150.21c1.02,2.32-0.03,5.02-2.35,6.04c-2.32,1.02-5.02-0.03-6.04-2.35c-1.02-2.32,0.03-5.02,2.35-6.04
		C106.65,146.85,109.36,147.9,110.38,150.21z"/>
	<path class="st1" d="M115.59,161.92c1.02,2.32-0.03,5.02-2.35,6.04c-2.32,1.02-5.02-0.03-6.04-2.35c-1.02-2.32,0.03-5.02,2.35-6.04
		C111.87,158.55,114.57,159.6,115.59,161.92z"/>
	<path class="st1" d="M120.66,173.27c1.02,2.32-0.03,5.02-2.35,6.04c-2.32,1.02-5.02-0.03-6.04-2.35c-1.02-2.32,0.03-5.02,2.35-6.04
		C116.94,169.91,119.64,170.96,120.66,173.27z"/>
	<path class="st1" d="M125.75,184.79c1.02,2.32-0.03,5.02-2.35,6.04c-2.32,1.02-5.02-0.03-6.04-2.35c-1.02-2.32,0.03-5.02,2.35-6.04
		C122.02,181.42,124.73,182.47,125.75,184.79z"/>
	<path class="st1" d="M131.19,196.29c1.02,2.32-0.03,5.02-2.35,6.04c-2.32,1.02-5.02-0.03-6.04-2.35c-1.02-2.32,0.03-5.02,2.35-6.04
		C127.47,192.92,130.18,193.97,131.19,196.29z"/>
	<path class="st1" d="M184.1,57.89c-0.99,2.33,0.08,5.02,2.41,6.02c2.33,1,5.02-0.08,6.02-2.41c1-2.33-0.08-5.02-2.41-6.02
		C187.79,54.48,185.09,55.56,184.1,57.89z"/>
	<path class="st1" d="M179.01,69.31c-1,2.33,0.08,5.02,2.41,6.02c2.33,1,5.02-0.08,6.02-2.41c1-2.33-0.08-5.02-2.41-6.02
		C182.7,65.9,180.01,66.98,179.01,69.31z"/>
	<path class="st3" d="M174,80.56c-1,2.33,0.08,5.02,2.41,6.02c2.33,1,5.02-0.08,6.02-2.41c0.99-2.33-0.08-5.02-2.41-6.02
		C177.69,77.15,175,78.23,174,80.56z"/>
	<path class="st1" d="M168.91,92.31c-1,2.33,0.09,5.02,2.41,6.02c2.33,1,5.02-0.08,6.02-2.41c1-2.33-0.08-5.02-2.41-6.02
		C172.6,88.91,169.9,89.99,168.91,92.31z"/>
	<path class="st2" d="M163.96,103.73c-1,2.33,0.08,5.02,2.41,6.02c2.33,1,5.02-0.08,6.02-2.41c1-2.33-0.08-5.02-2.41-6.02
		C167.65,100.32,164.96,101.4,163.96,103.73z"/>
	<path class="st1" d="M158.87,115.48c-1,2.33,0.08,5.02,2.41,6.01c2.33,0.99,5.02-0.08,6.02-2.41c1-2.33-0.08-5.02-2.41-6.02
		C162.55,112.07,159.86,113.16,158.87,115.48z"/>
	<path class="st3" d="M153.92,126.89c-1,2.33,0.08,5.02,2.41,6.02c2.33,0.99,5.02-0.08,6.02-2.41c1-2.33-0.08-5.02-2.41-6.02
		C157.61,123.49,154.91,124.57,153.92,126.89z"/>
	<path class="st2" d="M148.82,138.65c-1,2.33,0.08,5.02,2.41,6.02c2.33,0.99,5.02-0.09,6.01-2.41c1-2.33-0.08-5.02-2.41-6.02
		C152.51,135.24,149.82,136.32,148.82,138.65z"/>
	<path class="st1" d="M143.88,150.06c-0.99,2.33,0.09,5.02,2.41,6.01c2.33,1,5.02-0.08,6.01-2.41c1-2.33-0.08-5.02-2.41-6.02
		C147.57,146.65,144.87,147.73,143.88,150.06z"/>
	<path class="st3" d="M139.12,161.48c-0.99,2.33,0.09,5.02,2.41,6.02c2.33,1,5.02-0.08,6.02-2.41c1-2.33-0.08-5.02-2.41-6.02
		C142.8,158.08,140.11,159.16,139.12,161.48z"/>
	<path class="st1" d="M134.67,172.84c-1,2.33,0.08,5.02,2.41,6.01c2.33,1,5.02-0.08,6.02-2.41c1-2.33-0.08-5.02-2.41-6.02
		C138.36,169.43,135.67,170.51,134.67,172.84z"/>
	<path class="st1" d="M129.77,184.4c-0.99,2.33,0.09,5.02,2.41,6.01c2.33,1,5.02-0.08,6.02-2.41c0.99-2.33-0.09-5.02-2.41-6.02
		C133.46,180.99,130.77,182.07,129.77,184.4z"/>
	<path class="st2" d="M153.09,162.17c-1,2.33,0.08,5.02,2.41,6.02c2.33,1,5.02-0.09,6.02-2.41c1-2.33-0.08-5.02-2.41-6.02
		C156.78,158.76,154.08,159.84,153.09,162.17z"/>
	<path class="st1" d="M191.77,69.4c-1,2.33,0.08,5.02,2.41,6.02c2.33,1,5.02-0.08,6.02-2.41c0.99-2.33-0.08-5.02-2.41-6.02
		C195.46,66,192.76,67.08,191.77,69.4z"/>
	<path class="st1" d="M177.6,104.85c-1,2.33,0.08,5.02,2.41,6.02c2.33,1,5.02-0.08,6.02-2.41c1-2.33-0.08-5.02-2.41-6.02
		C181.29,101.44,178.59,102.52,177.6,104.85z"/>
	<path class="st1" d="M129.03,208.32c-0.86,2.38,0.36,5.01,2.74,5.87c2.38,0.87,5.01-0.36,5.87-2.74c0.87-2.38-0.36-5.01-2.74-5.87
		C132.53,204.72,129.9,205.94,129.03,208.32z"/>
	<path class="st1" d="M167.1,127.78c-0.99,2.33,0.09,5.02,2.41,6.02c2.33,1,5.02-0.08,6.01-2.41c1-2.33-0.08-5.02-2.41-6.02
		C170.79,124.37,168.09,125.45,167.1,127.78z"/>
	<path class="st1" d="M147.84,173.42c-1,2.33,0.08,5.02,2.41,6.02c2.33,1,5.02-0.09,6.02-2.41c1-2.33-0.08-5.02-2.41-6.02
		C151.53,170.01,148.83,171.09,147.84,173.42z"/>
	<path class="st1" d="M135.96,196.5c-1,2.33,0.08,5.02,2.41,6.02c2.33,1,5.02-0.09,6.02-2.41c1-2.33-0.08-5.02-2.41-6.02
		C139.65,193.09,136.96,194.17,135.96,196.5z"/>
	<path class="st1" d="M158.29,149.99c-1,2.33,0.08,5.02,2.41,6.02c2.33,1,5.02-0.09,6.02-2.41c1-2.33-0.09-5.02-2.41-6.02
		C161.98,146.58,159.28,147.66,158.29,149.99z"/>
	<path class="st1" d="M401.72,97.84c0,2.53-2.05,4.58-4.58,4.58c-2.53,0-4.58-2.05-4.58-4.58c0-2.53,2.05-4.58,4.58-4.58
		C399.66,93.26,401.72,95.31,401.72,97.84z"/>
	<path class="st1" d="M401.96,173.68c0,2.53-2.05,4.58-4.58,4.58c-2.53,0-4.58-2.05-4.58-4.58c0-2.53,2.05-4.58,4.58-4.58
		C399.91,169.09,401.96,171.14,401.96,173.68z"/>
	<path class="st1" d="M92.51,258.19c0,4.58-3.71,8.3-8.3,8.3c-4.58,0-8.3-3.72-8.3-8.3c0-4.59,3.71-8.3,8.3-8.3
		C88.8,249.89,92.51,253.6,92.51,258.19z"/>
</g>
<g>
</g>
<g>
</g>
<g>
</g>
<g>
</g>
<g>
</g>
<g>
</g>
</svg>
