<?xml version="1.0" encoding="UTF-8" standalone="no"?>
<!DOCTYPE svg PUBLIC "-//W3C//DTD SVG 1.1//EN" "http://www.w3.org/Graphics/SVG/1.1/DTD/svg11.dtd">
<svg width="190px" height="190px" version="1.1" xmlns="http://www.w3.org/2000/svg" xmlns:xlink="http://www.w3.org/1999/xlink" xml:space="preserve" xmlns:serif="http://www.serif.com/" style="fill-rule:evenodd;clip-rule:evenodd;stroke-linejoin:round;stroke-miterlimit:2;">
    <g id="Logo" transform="matrix(1.18431,0,0,1.18431,-16.7095,-20.7262)">
        <g transform="matrix(0,-0.480471,-0.480471,0,139.534,77.1556)">
            <path d="M-4.582,-4.584C-7.113,-4.584 -9.166,-2.533 -9.166,0C-9.166,2.531 -7.113,4.582 -4.582,4.582C-2.051,4.582 -0,2.531 -0,0C-0,-2.533 -2.051,-4.584 -4.582,-4.584" style="fill:rgb(239,76,36);fill-rule:nonzero;"/>
        </g>
        <g transform="matrix(0,-0.480471,-0.480471,0,141.617,109.347)">
            <path d="M-4.582,-4.584C-7.113,-4.584 -9.166,-2.533 -9.166,0C-9.166,2.531 -7.113,4.582 -4.582,4.582C-2.051,4.582 -0,2.531 -0,0C-0,-2.533 -2.051,-4.584 -4.582,-4.584" style="fill:rgb(239,76,36);fill-rule:nonzero;"/>
        </g>
        <g transform="matrix(0,-0.480471,-0.480471,0,138.893,124.722)">
            <path d="M-4.582,-4.584C-7.113,-4.584 -9.166,-2.533 -9.166,0C-9.166,2.531 -7.113,4.582 -4.582,4.582C-2.051,4.582 -0,2.531 -0,0C-0,-2.533 -2.051,-4.584 -4.582,-4.584" style="fill:rgb(247,165,147);fill-rule:nonzero;"/>
        </g>
        <g transform="matrix(0,-0.480471,-0.480471,0,130.245,102.461)">
            <path d="M-4.582,-4.584C-7.113,-4.584 -9.166,-2.533 -9.166,0C-9.166,2.531 -7.113,4.582 -4.582,4.582C-2.051,4.582 -0,2.531 -0,0C-0,-2.533 -2.051,-4.584 -4.582,-4.584" style="fill:rgb(239,211,205);fill-rule:nonzero;"/>
        </g>
        <g transform="matrix(0,-0.480471,-0.480471,0,131.206,96.0539)">
            <path d="M-4.582,-4.584C-7.113,-4.584 -9.166,-2.533 -9.166,0C-9.166,2.531 -7.113,4.582 -4.582,4.582C-2.051,4.582 -0,2.531 -0,0C-0,-2.533 -2.051,-4.584 -4.582,-4.584" style="fill:rgb(239,76,36);fill-rule:nonzero;"/>
        </g>
        <g transform="matrix(0,-0.480471,-0.480471,0,130.165,89.7276)">
            <path d="M-4.582,-4.584C-7.113,-4.584 -9.166,-2.533 -9.166,0C-9.166,2.531 -7.113,4.582 -4.582,4.582C-2.051,4.582 -0,2.531 -0,0C-0,-2.533 -2.051,-4.584 -4.582,-4.584" style="fill:rgb(239,76,36);fill-rule:nonzero;"/>
        </g>
        <g transform="matrix(0,-0.480471,-0.480471,0,128.645,83.4814)">
            <path d="M-4.582,-4.584C-7.113,-4.584 -9.166,-2.533 -9.166,0C-9.166,2.531 -7.113,4.582 -4.582,4.582C-2.051,4.582 -0,2.531 -0,0C-0,-2.533 -2.051,-4.584 -4.582,-4.584" style="fill:rgb(239,76,36);fill-rule:nonzero;"/>
        </g>
        <g transform="matrix(0,-0.480471,-0.480471,0,125.842,77.796)">
            <path d="M-4.582,-4.584C-7.113,-4.584 -9.166,-2.533 -9.166,0C-9.166,2.531 -7.113,4.582 -4.582,4.582C-2.051,4.582 -0,2.531 -0,0C-0,-2.533 -2.051,-4.584 -4.582,-4.584" style="fill:rgb(247,165,147);fill-rule:nonzero;"/>
        </g>
        <g transform="matrix(0,-0.480471,-0.480471,0,122.238,72.5109)">
            <path d="M-4.582,-4.584C-7.113,-4.584 -9.166,-2.533 -9.166,0C-9.166,2.531 -7.113,4.582 -4.582,4.582C-2.051,4.582 -0,2.531 -0,0C-0,-2.533 -2.051,-4.584 -4.582,-4.584" style="fill:rgb(239,76,36);fill-rule:nonzero;"/>
        </g>
        <g transform="matrix(0,-0.480471,-0.480471,0,117.755,68.0266)">
            <path d="M-4.582,-4.584C-7.113,-4.584 -9.166,-2.533 -9.166,0C-9.166,2.531 -7.113,4.582 -4.582,4.582C-2.051,4.582 -0,2.531 -0,0C-0,-2.533 -2.051,-4.584 -4.582,-4.584" style="fill:rgb(239,76,36);fill-rule:nonzero;"/>
        </g>
        <g transform="matrix(0,-0.480471,-0.480471,0,112.55,64.3429)">
            <path d="M-4.582,-4.584C-7.113,-4.584 -9.166,-2.533 -9.166,0C-9.166,2.531 -7.113,4.582 -4.582,4.582C-2.051,4.582 -0,2.531 -0,0C-0,-2.533 -2.051,-4.584 -4.582,-4.584" style="fill:rgb(239,76,36);fill-rule:nonzero;"/>
        </g>
        <g transform="matrix(0,-0.480471,-0.480471,0,106.704,61.62)">
            <path d="M-4.582,-4.584C-7.113,-4.584 -9.166,-2.533 -9.166,0C-9.166,2.531 -7.113,4.582 -4.582,4.582C-2.051,4.582 -0,2.531 -0,0C-0,-2.533 -2.051,-4.584 -4.582,-4.584" style="fill:rgb(239,76,36);fill-rule:nonzero;"/>
        </g>
        <g transform="matrix(0,-0.480471,-0.480471,0,100.538,60.0191)">
            <path d="M-4.582,-4.584C-7.113,-4.584 -9.166,-2.533 -9.166,0C-9.166,2.531 -7.113,4.582 -4.582,4.582C-2.051,4.582 -0,2.531 -0,0C-0,-2.533 -2.051,-4.584 -4.582,-4.584" style="fill:rgb(239,211,205);fill-rule:nonzero;"/>
        </g>
        <g transform="matrix(0,-0.480471,-0.480471,0,94.2119,59.4579)">
            <path d="M-4.582,-4.584C-7.113,-4.584 -9.166,-2.533 -9.166,0C-9.166,2.531 -7.113,4.582 -4.582,4.582C-2.051,4.582 -0,2.531 -0,0C-0,-2.533 -2.051,-4.584 -4.582,-4.584" style="fill:rgb(239,76,36);fill-rule:nonzero;"/>
        </g>
        <g transform="matrix(0,-0.480471,-0.480471,0,87.9658,59.6982)">
            <path d="M-4.582,-4.584C-7.113,-4.584 -9.166,-2.533 -9.166,0C-9.166,2.531 -7.113,4.582 -4.582,4.582C-2.051,4.582 -0,2.531 -0,0C-0,-2.533 -2.051,-4.584 -4.582,-4.584" style="fill:rgb(239,76,36);fill-rule:nonzero;"/>
        </g>
        <g transform="matrix(0,-0.480471,-0.480471,0,81.6394,60.98)">
            <path d="M-4.582,-4.584C-7.113,-4.584 -9.166,-2.533 -9.166,0C-9.166,2.531 -7.113,4.582 -4.582,4.582C-2.051,4.582 -0,2.531 -0,0C-0,-2.533 -2.051,-4.584 -4.582,-4.584" style="fill:rgb(239,211,205);fill-rule:nonzero;"/>
        </g>
        <g transform="matrix(0,-0.480471,-0.480471,0,75.8738,64.1031)">
            <path d="M-4.582,-4.584C-7.113,-4.584 -9.166,-2.533 -9.166,0C-9.166,2.531 -7.113,4.582 -4.582,4.582C-2.051,4.582 -0,2.531 -0,0C-0,-2.533 -2.051,-4.584 -4.582,-4.584" style="fill:rgb(239,76,36);fill-rule:nonzero;"/>
        </g>
        <g transform="matrix(0,-0.480471,-0.480471,0,70.6693,67.9468)">
            <path d="M-4.582,-4.584C-7.113,-4.584 -9.166,-2.533 -9.166,0C-9.166,2.531 -7.113,4.582 -4.582,4.582C-2.051,4.582 -0,2.531 -0,0C-0,-2.533 -2.051,-4.584 -4.582,-4.584" style="fill:rgb(239,211,205);fill-rule:nonzero;"/>
        </g>
        <g transform="matrix(0,-0.480471,-0.480471,0,66.1049,72.4311)">
            <path d="M-4.582,-4.584C-7.113,-4.584 -9.166,-2.533 -9.166,0C-9.166,2.531 -7.113,4.582 -4.582,4.582C-2.051,4.582 -0,2.531 -0,0C-0,-2.533 -2.051,-4.584 -4.582,-4.584" style="fill:rgb(239,76,36);fill-rule:nonzero;"/>
        </g>
        <g transform="matrix(0,-0.480471,-0.480471,0,62.3409,77.636)">
            <path d="M-4.582,-4.584C-7.113,-4.584 -9.166,-2.533 -9.166,0C-9.166,2.531 -7.113,4.582 -4.582,4.582C-2.051,4.582 -0,2.531 -0,0C-0,-2.533 -2.051,-4.584 -4.582,-4.584" style="fill:rgb(239,211,205);fill-rule:nonzero;"/>
        </g>
        <g transform="matrix(0,-0.480471,-0.480471,0,59.6185,83.4824)">
            <path d="M-4.582,-4.584C-7.113,-4.584 -9.166,-2.533 -9.166,0C-9.166,2.531 -7.113,4.582 -4.582,4.582C-2.051,4.582 -0,2.531 -0,0C-0,-2.533 -2.051,-4.584 -4.582,-4.584" style="fill:rgb(239,76,36);fill-rule:nonzero;"/>
        </g>
        <g transform="matrix(0,-0.480471,-0.480471,0,57.9369,89.568)">
            <path d="M-4.582,-4.584C-7.113,-4.584 -9.166,-2.533 -9.166,0C-9.166,2.531 -7.113,4.582 -4.582,4.582C-2.051,4.582 -0,2.531 -0,0C-0,-2.533 -2.051,-4.584 -4.582,-4.584" style="fill:rgb(239,211,205);fill-rule:nonzero;"/>
        </g>
        <g transform="matrix(0,-0.480471,-0.480471,0,57.4564,95.8939)">
            <path d="M-4.582,-4.584C-7.113,-4.584 -9.166,-2.533 -9.166,0C-9.166,2.531 -7.113,4.582 -4.582,4.582C-2.051,4.582 -0,2.531 -0,0C-0,-2.533 -2.051,-4.584 -4.582,-4.584" style="fill:rgb(239,76,36);fill-rule:nonzero;"/>
        </g>
        <g transform="matrix(0,-0.480471,-0.480471,0,57.9369,102.22)">
            <path d="M-4.582,-4.584C-7.113,-4.584 -9.166,-2.533 -9.166,0C-9.166,2.531 -7.113,4.582 -4.582,4.582C-2.051,4.582 -0,2.531 -0,0C-0,-2.533 -2.051,-4.584 -4.582,-4.584" style="fill:rgb(239,76,36);fill-rule:nonzero;"/>
        </g>
        <g transform="matrix(0,-0.480471,-0.480471,0,59.6185,108.466)">
            <path d="M-4.582,-4.584C-7.113,-4.584 -9.166,-2.533 -9.166,0C-9.166,2.531 -7.113,4.582 -4.582,4.582C-2.051,4.582 -0,2.531 -0,0C-0,-2.533 -2.051,-4.584 -4.582,-4.584" style="fill:rgb(239,211,205);fill-rule:nonzero;"/>
        </g>
        <g transform="matrix(0,-0.480471,-0.480471,0,62.3409,114.232)">
            <path d="M-4.582,-4.584C-7.113,-4.584 -9.166,-2.533 -9.166,0C-9.166,2.531 -7.113,4.582 -4.582,4.582C-2.051,4.582 -0,2.531 -0,0C-0,-2.533 -2.051,-4.584 -4.582,-4.584" style="fill:rgb(239,76,36);fill-rule:nonzero;"/>
        </g>
        <g transform="matrix(0,-0.480471,-0.480471,0,66.0246,119.518)">
            <path d="M-4.582,-4.584C-7.113,-4.584 -9.166,-2.533 -9.166,0C-9.166,2.531 -7.113,4.582 -4.582,4.582C-2.051,4.582 -0,2.531 -0,0C-0,-2.533 -2.051,-4.584 -4.582,-4.584" style="fill:rgb(239,76,36);fill-rule:nonzero;"/>
        </g>
        <g transform="matrix(0,-0.480471,-0.480471,0,70.4291,123.922)">
            <path d="M-4.582,-4.584C-7.113,-4.584 -9.166,-2.533 -9.166,0C-9.166,2.531 -7.113,4.582 -4.582,4.582C-2.051,4.582 -0,2.531 -0,0C-0,-2.533 -2.051,-4.584 -4.582,-4.584" style="fill:rgb(239,76,36);fill-rule:nonzero;"/>
        </g>
        <g transform="matrix(0,-0.480471,-0.480471,0,75.6336,128.166)">
            <path d="M-4.582,-4.584C-7.113,-4.584 -9.166,-2.533 -9.166,0C-9.166,2.531 -7.113,4.582 -4.582,4.582C-2.051,4.582 -0,2.531 -0,0C-0,-2.533 -2.051,-4.584 -4.582,-4.584" style="fill:rgb(239,211,205);fill-rule:nonzero;"/>
        </g>
        <g transform="matrix(0,-0.480471,-0.480471,0,81.4794,130.328)">
            <path d="M-4.582,-4.584C-7.113,-4.584 -9.166,-2.533 -9.166,0C-9.166,2.531 -7.113,4.582 -4.582,4.582C-2.051,4.582 -0,2.531 -0,0C-0,-2.533 -2.051,-4.584 -4.582,-4.584" style="fill:rgb(239,76,36);fill-rule:nonzero;"/>
        </g>
        <g transform="matrix(0,-0.480471,-0.480471,0,87.6453,132.09)">
            <path d="M-4.582,-4.584C-7.113,-4.584 -9.166,-2.533 -9.166,0C-9.166,2.531 -7.113,4.582 -4.582,4.582C-2.051,4.582 -0,2.531 -0,0C-0,-2.533 -2.051,-4.584 -4.582,-4.584" style="fill:rgb(239,76,36);fill-rule:nonzero;"/>
        </g>
        <g transform="matrix(0,-0.480471,-0.480471,0,94.0519,132.571)">
            <path d="M-4.582,-4.584C-7.113,-4.584 -9.166,-2.533 -9.166,0C-9.166,2.531 -7.113,4.582 -4.582,4.582C-2.051,4.582 -0,2.531 -0,0C-0,-2.533 -2.051,-4.584 -4.582,-4.584" style="fill:rgb(239,76,36);fill-rule:nonzero;"/>
        </g>
        <g transform="matrix(0,-0.480471,-0.480471,0,100.378,132.01)">
            <path d="M-4.582,-4.584C-7.113,-4.584 -9.166,-2.533 -9.166,0C-9.166,2.531 -7.113,4.582 -4.582,4.582C-2.051,4.582 -0,2.531 -0,0C-0,-2.533 -2.051,-4.584 -4.582,-4.584" style="fill:rgb(239,211,205);fill-rule:nonzero;"/>
        </g>
        <g transform="matrix(0,-0.480471,-0.480471,0,106.544,130.408)">
            <path d="M-4.582,-4.584C-7.113,-4.584 -9.166,-2.533 -9.166,0C-9.166,2.531 -7.113,4.582 -4.582,4.582C-2.051,4.582 -0,2.531 -0,0C-0,-2.533 -2.051,-4.584 -4.582,-4.584" style="fill:rgb(239,76,36);fill-rule:nonzero;"/>
        </g>
        <g transform="matrix(0,-0.480471,-0.480471,0,112.47,127.685)">
            <path d="M-4.582,-4.584C-7.113,-4.584 -9.166,-2.533 -9.166,-0C-9.166,2.53 -7.113,4.582 -4.582,4.582C-2.051,4.582 0,2.53 0,-0C0,-2.533 -2.051,-4.584 -4.582,-4.584" style="fill:rgb(239,76,36);fill-rule:nonzero;"/>
        </g>
        <g transform="matrix(0,-0.480471,-0.480471,0,117.755,124.082)">
            <path d="M-4.582,-4.584C-7.113,-4.584 -9.166,-2.533 -9.166,0C-9.166,2.531 -7.113,4.582 -4.582,4.582C-2.051,4.582 0,2.531 0,0C0,-2.533 -2.051,-4.584 -4.582,-4.584" style="fill:rgb(239,211,205);fill-rule:nonzero;"/>
        </g>
        <g transform="matrix(0,-0.480471,-0.480471,0,122.319,119.597)">
            <path d="M-4.582,-4.584C-7.113,-4.584 -9.166,-2.533 -9.166,0C-9.166,2.531 -7.113,4.582 -4.582,4.582C-2.051,4.582 -0,2.531 -0,0C-0,-2.533 -2.051,-4.584 -4.582,-4.584" style="fill:rgb(239,76,36);fill-rule:nonzero;"/>
        </g>
        <g transform="matrix(0,-0.480471,-0.480471,0,125.842,114.473)">
            <path d="M-4.581,-4.583C-7.112,-4.583 -9.165,-2.532 -9.165,-0.001C-9.165,2.53 -7.112,4.581 -4.581,4.581C-2.05,4.581 0.001,2.53 0.001,-0.001C0.001,-2.532 -2.05,-4.583 -4.581,-4.583" style="fill:rgb(239,76,36);fill-rule:nonzero;"/>
        </g>
        <g transform="matrix(0,-0.480471,-0.480471,0,128.566,108.627)">
            <path d="M-4.581,-4.583C-7.112,-4.583 -9.165,-2.532 -9.165,-0.001C-9.165,2.53 -7.112,4.581 -4.581,4.581C-2.05,4.581 0.001,2.53 0.001,-0.001C0.001,-2.532 -2.05,-4.583 -4.581,-4.583" style="fill:rgb(239,76,36);fill-rule:nonzero;"/>
        </g>
        <g transform="matrix(0,-0.480471,-0.480471,0,132.409,113.832)">
            <path d="M-4.581,-4.583C-7.112,-4.583 -9.165,-2.532 -9.165,-0.001C-9.165,2.53 -7.112,4.581 -4.581,4.581C-2.05,4.581 0.001,2.53 0.001,-0.001C0.001,-2.532 -2.05,-4.583 -4.581,-4.583" style="fill:rgb(239,76,36);fill-rule:nonzero;"/>
        </g>
        <g transform="matrix(0,-0.480471,-0.480471,0,128.725,120.078)">
            <path d="M-4.581,-4.583C-7.112,-4.583 -9.165,-2.532 -9.165,-0.001C-9.165,2.53 -7.112,4.581 -4.581,4.581C-2.05,4.581 0.001,2.53 0.001,-0.001C0.001,-2.532 -2.05,-4.583 -4.581,-4.583" style="fill:rgb(239,76,36);fill-rule:nonzero;"/>
        </g>
        <g transform="matrix(0,-0.480471,-0.480471,0,118.395,130.408)">
            <path d="M-4.581,-4.583C-7.112,-4.583 -9.165,-2.532 -9.165,-0.001C-9.165,2.53 -7.112,4.581 -4.581,4.581C-2.05,4.581 0.001,2.53 0.001,-0.001C0.001,-2.532 -2.05,-4.583 -4.581,-4.583" style="fill:rgb(239,76,36);fill-rule:nonzero;"/>
        </g>
        <g transform="matrix(0,-0.480471,-0.480471,0,129.766,129.845)">
            <path d="M-6.586,-6.588C-10.225,-6.588 -13.175,-3.64 -13.175,-0.001C-13.175,3.638 -10.225,6.586 -6.586,6.586C-2.947,6.586 0.001,3.638 0.001,-0.001C0.001,-3.64 -2.947,-6.588 -6.586,-6.588" style="fill:rgb(239,76,36);fill-rule:nonzero;"/>
        </g>
        <g transform="matrix(0,-0.480471,-0.480471,0,136.171,99.6579)">
            <path d="M-4.581,-4.583C-7.112,-4.583 -9.165,-2.532 -9.165,-0.001C-9.165,2.53 -7.112,4.581 -4.581,4.581C-2.05,4.581 0.001,2.53 0.001,-0.001C0.001,-2.532 -2.05,-4.583 -4.581,-4.583" style="fill:rgb(239,76,36);fill-rule:nonzero;"/>
        </g>
        <g transform="matrix(0,-0.480471,-0.480471,0,136.252,92.2909)">
            <path d="M-4.581,-4.583C-7.112,-4.583 -9.165,-2.532 -9.165,-0.001C-9.165,2.53 -7.112,4.581 -4.581,4.581C-2.05,4.581 0.001,2.53 0.001,-0.001C0.001,-2.532 -2.05,-4.583 -4.581,-4.583" style="fill:rgb(239,76,36);fill-rule:nonzero;"/>
        </g>
        <g transform="matrix(0,-0.480471,-0.480471,0,134.891,85.0838)">
            <path d="M-4.581,-4.583C-7.112,-4.583 -9.165,-2.532 -9.165,-0.001C-9.165,2.53 -7.112,4.581 -4.581,4.581C-2.05,4.581 0.001,2.53 0.001,-0.001C0.001,-2.532 -2.05,-4.583 -4.581,-4.583" style="fill:rgb(239,211,205);fill-rule:nonzero;"/>
        </g>
        <g transform="matrix(0,-0.480471,-0.480471,0,128.725,71.8709)">
            <path d="M-4.581,-4.583C-7.112,-4.583 -9.165,-2.532 -9.165,-0.001C-9.165,2.53 -7.112,4.581 -4.581,4.581C-2.05,4.581 0.001,2.53 0.001,-0.001C0.001,-2.532 -2.05,-4.583 -4.581,-4.583" style="fill:rgb(239,76,36);fill-rule:nonzero;"/>
        </g>
        <g transform="matrix(0,-0.480471,-0.480471,0,118.395,61.5408)">
            <path d="M-4.581,-4.583C-7.112,-4.583 -9.165,-2.532 -9.165,-0.001C-9.165,2.53 -7.112,4.581 -4.581,4.581C-2.05,4.581 0.001,2.53 0.001,-0.001C0.001,-2.532 -2.05,-4.583 -4.581,-4.583" style="fill:rgb(247,165,147);fill-rule:nonzero;"/>
        </g>
        <g transform="matrix(0,-0.480471,-0.480471,0,124.32,53.2928)">
            <path d="M-4.581,-4.584C-7.112,-4.584 -9.166,-2.533 -9.166,-0.002C-9.166,2.529 -7.112,4.581 -4.581,4.581C-2.05,4.581 0.002,2.529 0.002,-0.002C0.002,-2.533 -2.05,-4.584 -4.581,-4.584" style="fill:rgb(239,76,36);fill-rule:nonzero;"/>
        </g>
        <g transform="matrix(0,-0.480471,-0.480471,0,111.908,134.012)">
            <path d="M-4.581,-4.583C-7.112,-4.583 -9.165,-2.532 -9.165,-0.001C-9.165,2.53 -7.112,4.581 -4.581,4.581C-2.05,4.581 0.001,2.53 0.001,-0.001C0.001,-2.532 -2.05,-4.583 -4.581,-4.583" style="fill:rgb(239,76,36);fill-rule:nonzero;"/>
        </g>
        <g transform="matrix(0,-0.480471,-0.480471,0,105.021,136.494)">
            <path d="M-4.581,-4.583C-7.112,-4.583 -9.165,-2.532 -9.165,-0.001C-9.165,2.53 -7.112,4.581 -4.581,4.581C-2.05,4.581 0.001,2.53 0.001,-0.001C0.001,-2.532 -2.05,-4.583 -4.581,-4.583" style="fill:rgb(239,76,36);fill-rule:nonzero;"/>
        </g>
        <g transform="matrix(0,-0.480471,-0.480471,0,106.783,142.821)">
            <path d="M-4.581,-4.583C-7.112,-4.583 -9.165,-2.532 -9.165,-0.001C-9.165,2.53 -7.112,4.581 -4.581,4.581C-2.05,4.581 0.001,2.53 0.001,-0.001C0.001,-2.532 -2.05,-4.583 -4.581,-4.583" style="fill:rgb(239,76,36);fill-rule:nonzero;"/>
        </g>
        <g transform="matrix(0,-0.480471,-0.480471,0,97.7338,137.776)">
            <path d="M-4.581,-4.583C-7.112,-4.583 -9.165,-2.532 -9.165,-0.001C-9.165,2.53 -7.112,4.581 -4.581,4.581C-2.05,4.581 0.001,2.53 0.001,-0.001C0.001,-2.532 -2.05,-4.583 -4.581,-4.583" style="fill:rgb(247,165,147);fill-rule:nonzero;"/>
        </g>
        <g transform="matrix(0,-0.480471,-0.480471,0,90.3668,137.856)">
            <path d="M-4.581,-4.583C-7.112,-4.583 -9.165,-2.532 -9.165,-0.001C-9.165,2.53 -7.112,4.581 -4.581,4.581C-2.05,4.581 0.001,2.53 0.001,-0.001C0.001,-2.532 -2.05,-4.583 -4.581,-4.583" style="fill:rgb(239,76,36);fill-rule:nonzero;"/>
        </g>
        <g transform="matrix(0,-0.480471,-0.480471,0,83.1597,136.574)">
            <path d="M-4.581,-4.583C-7.112,-4.583 -9.165,-2.532 -9.165,-0.001C-9.165,2.53 -7.112,4.581 -4.581,4.581C-2.05,4.581 0.001,2.53 0.001,-0.001C0.001,-2.532 -2.05,-4.583 -4.581,-4.583" style="fill:rgb(239,76,36);fill-rule:nonzero;"/>
        </g>
        <g transform="matrix(0,-0.480471,-0.480471,0,75.0719,139.457)">
            <path d="M-4.581,-4.583C-7.112,-4.583 -9.165,-2.532 -9.165,-0.001C-9.165,2.53 -7.112,4.581 -4.581,4.581C-2.05,4.581 0.001,2.53 0.001,-0.001C0.001,-2.532 -2.05,-4.583 -4.581,-4.583" style="fill:rgb(239,76,36);fill-rule:nonzero;"/>
        </g>
        <g transform="matrix(0,-0.480471,-0.480471,0,105.183,55.3739)">
            <path d="M-4.582,-4.584C-7.113,-4.584 -9.166,-2.533 -9.166,0C-9.166,2.531 -7.113,4.582 -4.582,4.582C-2.051,4.582 -0,2.531 -0,0C-0,-2.533 -2.051,-4.584 -4.582,-4.584" style="fill:rgb(239,76,36);fill-rule:nonzero;"/>
        </g>
        <g transform="matrix(0,-0.480471,-0.480471,0,90.6886,54.0127)">
            <path d="M-4.582,-4.584C-7.113,-4.584 -9.166,-2.533 -9.166,0C-9.166,2.531 -7.113,4.582 -4.582,4.582C-2.051,4.582 -0,2.531 -0,0C-0,-2.533 -2.051,-4.584 -4.582,-4.584" style="fill:rgb(239,76,36);fill-rule:nonzero;"/>
        </g>
        <g transform="matrix(0,-0.480471,-0.480471,0,79.9579,42.7762)">
            <path d="M-6.802,-6.804C-10.559,-6.804 -13.605,-3.76 -13.605,0C-13.605,3.757 -10.559,6.802 -6.802,6.802C-3.044,6.802 0,3.757 0,0C0,-3.76 -3.044,-6.804 -6.802,-6.804" style="fill:rgb(247,165,147);fill-rule:nonzero;"/>
        </g>
        <g transform="matrix(0,-0.480471,-0.480471,0,76.4346,56.8956)">
            <path d="M-4.582,-4.584C-7.113,-4.584 -9.166,-2.533 -9.166,0C-9.166,2.531 -7.113,4.582 -4.582,4.582C-2.051,4.582 -0,2.531 -0,0C-0,-2.533 -2.051,-4.584 -4.582,-4.584" style="fill:rgb(247,165,147);fill-rule:nonzero;"/>
        </g>
        <g transform="matrix(0,-0.480471,-0.480471,0,70.0284,61.5403)">
            <path d="M-4.582,-4.584C-7.113,-4.584 -9.166,-2.533 -9.166,0C-9.166,2.531 -7.113,4.582 -4.582,4.582C-2.051,4.582 -0,2.531 -0,0C-0,-2.533 -2.051,-4.584 -4.582,-4.584" style="fill:rgb(239,76,36);fill-rule:nonzero;"/>
        </g>
        <g transform="matrix(0,-0.480471,-0.480471,0,64.3426,66.1845)">
            <path d="M-4.582,-4.584C-7.113,-4.584 -9.166,-2.533 -9.166,0C-9.166,2.531 -7.113,4.582 -4.582,4.582C-2.051,4.582 -0,2.531 -0,0C-0,-2.533 -2.051,-4.584 -4.582,-4.584" style="fill:rgb(239,76,36);fill-rule:nonzero;"/>
        </g>
        <g transform="matrix(0,-0.480471,-0.480471,0,63.8621,58.497)">
            <path d="M-4.582,-4.584C-7.113,-4.584 -9.166,-2.533 -9.166,0C-9.166,2.531 -7.113,4.582 -4.582,4.582C-2.051,4.582 -0,2.531 -0,0C-0,-2.533 -2.051,-4.584 -4.582,-4.584" style="fill:rgb(239,76,36);fill-rule:nonzero;"/>
        </g>
        <g transform="matrix(0,-0.480471,-0.480471,0,56.0141,78.0363)">
            <path d="M-4.582,-4.584C-7.113,-4.584 -9.166,-2.533 -9.166,0C-9.166,2.531 -7.113,4.582 -4.582,4.582C-2.051,4.582 -0,2.531 -0,0C-0,-2.533 -2.051,-4.584 -4.582,-4.584" style="fill:rgb(239,76,36);fill-rule:nonzero;"/>
        </g>
        <g transform="matrix(0,-0.480471,-0.480471,0,53.4512,85.0031)">
            <path d="M-4.582,-4.584C-7.113,-4.584 -9.166,-2.533 -9.166,0C-9.166,2.531 -7.113,4.582 -4.582,4.582C-2.051,4.582 -0,2.531 -0,0C-0,-2.533 -2.051,-4.584 -4.582,-4.584" style="fill:rgb(239,76,36);fill-rule:nonzero;"/>
        </g>
        <g transform="matrix(0,-0.480471,-0.480471,0,52.1703,92.2101)">
            <path d="M-4.582,-4.584C-7.113,-4.584 -9.166,-2.533 -9.166,0C-9.166,2.531 -7.113,4.582 -4.582,4.582C-2.051,4.582 -0,2.531 -0,0C-0,-2.533 -2.051,-4.584 -4.582,-4.584" style="fill:rgb(247,165,147);fill-rule:nonzero;"/>
        </g>
        <g transform="matrix(0,-0.480471,-0.480471,0,53.3715,106.784)">
            <path d="M-4.582,-4.584C-7.113,-4.584 -9.166,-2.533 -9.166,0C-9.166,2.531 -7.113,4.582 -4.582,4.582C-2.051,4.582 -0,2.531 -0,0C-0,-2.533 -2.051,-4.584 -4.582,-4.584" style="fill:rgb(239,76,36);fill-rule:nonzero;"/>
        </g>
        <g transform="matrix(0,-0.480471,-0.480471,0,55.9338,113.591)">
            <path d="M-4.582,-4.584C-7.113,-4.584 -9.166,-2.533 -9.166,0C-9.166,2.531 -7.113,4.582 -4.582,4.582C-2.051,4.582 -0,2.531 -0,0C-0,-2.533 -2.051,-4.584 -4.582,-4.584" style="fill:rgb(239,76,36);fill-rule:nonzero;"/>
        </g>
        <g transform="matrix(0,-0.480471,-0.480471,0,59.6176,119.917)">
            <path d="M-4.582,-4.584C-7.113,-4.584 -9.166,-2.533 -9.166,0C-9.166,2.531 -7.113,4.582 -4.582,4.582C-2.051,4.582 -0,2.531 -0,0C-0,-2.533 -2.051,-4.584 -4.582,-4.584" style="fill:rgb(247,165,147);fill-rule:nonzero;"/>
        </g>
        <g transform="matrix(0,-0.480471,-0.480471,0,64.3421,125.523)">
            <path d="M-4.582,-4.584C-7.113,-4.584 -9.166,-2.533 -9.166,0C-9.166,2.531 -7.113,4.582 -4.582,4.582C-2.051,4.582 -0,2.531 -0,0C-0,-2.533 -2.051,-4.584 -4.582,-4.584" style="fill:rgb(239,76,36);fill-rule:nonzero;"/>
        </g>
        <g transform="matrix(0,-0.480471,-0.480471,0,69.9477,130.408)">
            <path d="M-4.582,-4.584C-7.113,-4.584 -9.166,-2.533 -9.166,0C-9.166,2.531 -7.113,4.582 -4.582,4.582C-2.051,4.582 -0,2.531 -0,0C-0,-2.533 -2.051,-4.584 -4.582,-4.584" style="fill:rgb(239,76,36);fill-rule:nonzero;"/>
        </g>
        <g transform="matrix(0,-0.480471,-0.480471,0,54.9729,124.161)">
            <path d="M-4.582,-4.584C-7.113,-4.584 -9.166,-2.533 -9.166,0C-9.166,2.531 -7.113,4.582 -4.582,4.582C-2.051,4.582 -0,2.531 -0,0C-0,-2.533 -2.051,-4.584 -4.582,-4.584" style="fill:rgb(239,76,36);fill-rule:nonzero;"/>
        </g>
        <g transform="matrix(0,-0.480471,-0.480471,0,61.2993,130.648)">
            <path d="M-4.582,-4.584C-7.113,-4.584 -9.166,-2.533 -9.166,0C-9.166,2.531 -7.113,4.582 -4.582,4.582C-2.051,4.582 -0,2.531 -0,0C-0,-2.533 -2.051,-4.584 -4.582,-4.584" style="fill:rgb(239,76,36);fill-rule:nonzero;"/>
        </g>
        <g transform="matrix(0,-0.480471,-0.480471,0,49.4475,129.527)">
            <path d="M-4.582,-4.584C-7.113,-4.584 -9.166,-2.533 -9.166,0C-9.166,2.531 -7.113,4.582 -4.582,4.582C-2.051,4.582 -0,2.531 -0,0C-0,-2.533 -2.051,-4.584 -4.582,-4.584" style="fill:rgb(239,76,36);fill-rule:nonzero;"/>
        </g>
        <g transform="matrix(0,-0.480471,-0.480471,0,48.4063,111.269)">
            <path d="M-4.582,-4.584C-7.113,-4.584 -9.166,-2.533 -9.166,0C-9.166,2.531 -7.113,4.582 -4.582,4.582C-2.051,4.582 -0,2.531 -0,0C-0,-2.533 -2.051,-4.584 -4.582,-4.584" style="fill:rgb(239,211,205);fill-rule:nonzero;"/>
        </g>
        <g transform="matrix(0,-0.480471,-0.480471,0,46.5642,102.3)">
            <path d="M-4.582,-4.584C-7.113,-4.584 -9.166,-2.533 -9.166,0C-9.166,2.531 -7.113,4.582 -4.582,4.582C-2.051,4.582 -0,2.531 -0,0C-0,-2.533 -2.051,-4.584 -4.582,-4.584" style="fill:rgb(239,76,36);fill-rule:nonzero;"/>
        </g>
        <g transform="matrix(-0.188893,0.441782,0.441782,0.188893,53.7672,65.7481)">
            <path d="M4.214,-6.385C6.745,-6.385 8.797,-4.333 8.797,-1.801C8.798,0.73 6.745,2.782 4.214,2.782C1.682,2.78 -0.371,0.73 -0.371,-1.802C-0.37,-4.334 1.682,-6.386 4.214,-6.385" style="fill:rgb(239,76,36);fill-rule:nonzero;"/>
        </g>
        <g transform="matrix(-0.188893,0.441782,0.441782,0.188893,41.9151,93.7961)">
            <path d="M4.215,-6.386C6.746,-6.385 8.798,-4.333 8.798,-1.801C8.799,0.729 6.746,2.782 4.215,2.781C1.685,2.782 -0.369,0.73 -0.37,-1.802C-0.369,-4.334 1.684,-6.385 4.215,-6.386" style="fill:rgb(239,76,36);fill-rule:nonzero;"/>
        </g>
        <g transform="matrix(0,-0.480471,-0.480471,0,148.934,102.03)">
            <path d="M-4.583,-4.584C-7.114,-4.584 -9.166,-2.533 -9.166,0C-9.166,2.531 -7.114,4.583 -4.583,4.583C-2.052,4.583 0,2.531 0,0C0,-2.533 -2.052,-4.584 -4.583,-4.584" style="fill:rgb(239,76,36);fill-rule:nonzero;"/>
        </g>
    </g>
    <g transform="matrix(2.05257,0,0,2.05257,-100.004,-100.618)">
        <g transform="matrix(0,-0.569028,-0.569028,0,137.541,100.619)">
            <path d="M-4.582,-4.584C-7.113,-4.584 -9.166,-2.533 -9.166,0C-9.166,2.531 -7.113,4.582 -4.582,4.582C-2.051,4.582 -0,2.531 -0,0C-0,-2.533 -2.051,-4.584 -4.582,-4.584" style="fill:rgb(239,211,205);fill-rule:nonzero;"/>
        </g>
        <g transform="matrix(0,-0.569028,-0.569028,0,138.679,93.0319)">
            <path d="M-4.582,-4.584C-7.113,-4.584 -9.166,-2.533 -9.166,0C-9.166,2.531 -7.113,4.582 -4.582,4.582C-2.051,4.582 -0,2.531 -0,0C-0,-2.533 -2.051,-4.584 -4.582,-4.584" style="fill:rgb(239,76,36);fill-rule:nonzero;"/>
        </g>
        <g transform="matrix(0,-0.569028,-0.569028,0,137.447,85.5395)">
            <path d="M-4.582,-4.584C-7.113,-4.584 -9.166,-2.533 -9.166,0C-9.166,2.531 -7.113,4.582 -4.582,4.582C-2.051,4.582 -0,2.531 -0,0C-0,-2.533 -2.051,-4.584 -4.582,-4.584" style="fill:rgb(239,76,36);fill-rule:nonzero;"/>
        </g>
        <g transform="matrix(0,-0.569028,-0.569028,0,135.647,78.1422)">
            <path d="M-4.582,-4.584C-7.113,-4.584 -9.166,-2.533 -9.166,0C-9.166,2.531 -7.113,4.582 -4.582,4.582C-2.051,4.582 -0,2.531 -0,0C-0,-2.533 -2.051,-4.584 -4.582,-4.584" style="fill:rgb(239,76,36);fill-rule:nonzero;"/>
        </g>
        <g transform="matrix(0,-0.569028,-0.569028,0,132.327,71.4088)">
            <path d="M-4.582,-4.584C-7.113,-4.584 -9.166,-2.533 -9.166,0C-9.166,2.531 -7.113,4.582 -4.582,4.582C-2.051,4.582 -0,2.531 -0,0C-0,-2.533 -2.051,-4.584 -4.582,-4.584" style="fill:rgb(247,165,147);fill-rule:nonzero;"/>
        </g>
        <g transform="matrix(0,-0.569028,-0.569028,0,128.059,65.1495)">
            <path d="M-4.582,-4.584C-7.113,-4.584 -9.166,-2.533 -9.166,0C-9.166,2.531 -7.113,4.582 -4.582,4.582C-2.051,4.582 -0,2.531 -0,0C-0,-2.533 -2.051,-4.584 -4.582,-4.584" style="fill:rgb(239,76,36);fill-rule:nonzero;"/>
        </g>
        <g transform="matrix(0,-0.569028,-0.569028,0,122.749,59.8388)">
            <path d="M-4.582,-4.584C-7.113,-4.584 -9.166,-2.533 -9.166,0C-9.166,2.531 -7.113,4.582 -4.582,4.582C-2.051,4.582 -0,2.531 -0,0C-0,-2.533 -2.051,-4.584 -4.582,-4.584" style="fill:rgb(239,76,36);fill-rule:nonzero;"/>
        </g>
        <g transform="matrix(0,-0.569028,-0.569028,0,116.585,55.476)">
            <path d="M-4.582,-4.584C-7.113,-4.584 -9.166,-2.533 -9.166,0C-9.166,2.531 -7.113,4.582 -4.582,4.582C-2.051,4.582 -0,2.531 -0,0C-0,-2.533 -2.051,-4.584 -4.582,-4.584" style="fill:rgb(239,76,36);fill-rule:nonzero;"/>
        </g>
        <g transform="matrix(0,-0.569028,-0.569028,0,109.662,52.2514)">
            <path d="M-4.582,-4.584C-7.113,-4.584 -9.166,-2.533 -9.166,0C-9.166,2.531 -7.113,4.582 -4.582,4.582C-2.051,4.582 -0,2.531 -0,0C-0,-2.533 -2.051,-4.584 -4.582,-4.584" style="fill:rgb(239,76,36);fill-rule:nonzero;"/>
        </g>
        <g transform="matrix(0,-0.569028,-0.569028,0,102.359,50.3553)">
            <path d="M-4.582,-4.584C-7.113,-4.584 -9.166,-2.533 -9.166,0C-9.166,2.531 -7.113,4.582 -4.582,4.582C-2.051,4.582 -0,2.531 -0,0C-0,-2.533 -2.051,-4.584 -4.582,-4.584" style="fill:rgb(239,211,205);fill-rule:nonzero;"/>
        </g>
        <g transform="matrix(0,-0.569028,-0.569028,0,94.867,49.6907)">
            <path d="M-4.582,-4.584C-7.113,-4.584 -9.166,-2.533 -9.166,0C-9.166,2.531 -7.113,4.582 -4.582,4.582C-2.051,4.582 -0,2.531 -0,0C-0,-2.533 -2.051,-4.584 -4.582,-4.584" style="fill:rgb(239,76,36);fill-rule:nonzero;"/>
        </g>
        <g transform="matrix(0,-0.569028,-0.569028,0,87.4697,49.9753)">
            <path d="M-4.582,-4.584C-7.113,-4.584 -9.166,-2.533 -9.166,0C-9.166,2.531 -7.113,4.582 -4.582,4.582C-2.051,4.582 -0,2.531 -0,0C-0,-2.533 -2.051,-4.584 -4.582,-4.584" style="fill:rgb(239,76,36);fill-rule:nonzero;"/>
        </g>
        <g transform="matrix(0,-0.569028,-0.569028,0,79.9773,51.4934)">
            <path d="M-4.582,-4.584C-7.113,-4.584 -9.166,-2.533 -9.166,0C-9.166,2.531 -7.113,4.582 -4.582,4.582C-2.051,4.582 -0,2.531 -0,0C-0,-2.533 -2.051,-4.584 -4.582,-4.584" style="fill:rgb(239,211,205);fill-rule:nonzero;"/>
        </g>
        <g transform="matrix(0,-0.569028,-0.569028,0,73.149,55.192)">
            <path d="M-4.582,-4.584C-7.113,-4.584 -9.166,-2.533 -9.166,0C-9.166,2.531 -7.113,4.582 -4.582,4.582C-2.051,4.582 -0,2.531 -0,0C-0,-2.533 -2.051,-4.584 -4.582,-4.584" style="fill:rgb(239,76,36);fill-rule:nonzero;"/>
        </g>
        <g transform="matrix(0,-0.569028,-0.569028,0,66.9852,59.7443)">
            <path d="M-4.582,-4.584C-7.113,-4.584 -9.166,-2.533 -9.166,0C-9.166,2.531 -7.113,4.582 -4.582,4.582C-2.051,4.582 -0,2.531 -0,0C-0,-2.533 -2.051,-4.584 -4.582,-4.584" style="fill:rgb(239,211,205);fill-rule:nonzero;"/>
        </g>
        <g transform="matrix(0,-0.569028,-0.569028,0,61.5794,65.0551)">
            <path d="M-4.582,-4.584C-7.113,-4.584 -9.166,-2.533 -9.166,0C-9.166,2.531 -7.113,4.582 -4.582,4.582C-2.051,4.582 -0,2.531 -0,0C-0,-2.533 -2.051,-4.584 -4.582,-4.584" style="fill:rgb(239,76,36);fill-rule:nonzero;"/>
        </g>
        <g transform="matrix(0,-0.569028,-0.569028,0,57.1217,71.2194)">
            <path d="M-4.582,-4.584C-7.113,-4.584 -9.166,-2.533 -9.166,0C-9.166,2.531 -7.113,4.582 -4.582,4.582C-2.051,4.582 -0,2.531 -0,0C-0,-2.533 -2.051,-4.584 -4.582,-4.584" style="fill:rgb(239,211,205);fill-rule:nonzero;"/>
        </g>
        <g transform="matrix(0,-0.569028,-0.569028,0,53.8976,78.1432)">
            <path d="M-4.582,-4.584C-7.113,-4.584 -9.166,-2.533 -9.166,0C-9.166,2.531 -7.113,4.582 -4.582,4.582C-2.051,4.582 -0,2.531 -0,0C-0,-2.533 -2.051,-4.584 -4.582,-4.584" style="fill:rgb(239,76,36);fill-rule:nonzero;"/>
        </g>
        <g transform="matrix(0,-0.569028,-0.569028,0,51.906,85.3505)">
            <path d="M-4.582,-4.584C-7.113,-4.584 -9.166,-2.533 -9.166,0C-9.166,2.531 -7.113,4.582 -4.582,4.582C-2.051,4.582 -0,2.531 -0,0C-0,-2.533 -2.051,-4.584 -4.582,-4.584" style="fill:rgb(239,211,205);fill-rule:nonzero;"/>
        </g>
        <g transform="matrix(0,-0.569028,-0.569028,0,51.3369,92.8424)">
            <path d="M-4.582,-4.584C-7.113,-4.584 -9.166,-2.533 -9.166,0C-9.166,2.531 -7.113,4.582 -4.582,4.582C-2.051,4.582 -0,2.531 -0,0C-0,-2.533 -2.051,-4.584 -4.582,-4.584" style="fill:rgb(239,76,36);fill-rule:nonzero;"/>
        </g>
        <g transform="matrix(0,-0.569028,-0.569028,0,51.906,100.335)">
            <path d="M-4.582,-4.584C-7.113,-4.584 -9.166,-2.533 -9.166,0C-9.166,2.531 -7.113,4.582 -4.582,4.582C-2.051,4.582 -0,2.531 -0,0C-0,-2.533 -2.051,-4.584 -4.582,-4.584" style="fill:rgb(239,76,36);fill-rule:nonzero;"/>
        </g>
        <g transform="matrix(0,-0.569028,-0.569028,0,53.8976,107.732)">
            <path d="M-4.582,-4.584C-7.113,-4.584 -9.166,-2.533 -9.166,0C-9.166,2.531 -7.113,4.582 -4.582,4.582C-2.051,4.582 -0,2.531 -0,0C-0,-2.533 -2.051,-4.584 -4.582,-4.584" style="fill:rgb(239,211,205);fill-rule:nonzero;"/>
        </g>
        <g transform="matrix(0,-0.569028,-0.569028,0,57.1217,114.561)">
            <path d="M-4.582,-4.584C-7.113,-4.584 -9.166,-2.533 -9.166,0C-9.166,2.531 -7.113,4.582 -4.582,4.582C-2.051,4.582 -0,2.531 -0,0C-0,-2.533 -2.051,-4.584 -4.582,-4.584" style="fill:rgb(239,76,36);fill-rule:nonzero;"/>
        </g>
        <g transform="matrix(0,-0.569028,-0.569028,0,61.4844,120.82)">
            <path d="M-4.582,-4.584C-7.113,-4.584 -9.166,-2.533 -9.166,0C-9.166,2.531 -7.113,4.582 -4.582,4.582C-2.051,4.582 -0,2.531 -0,0C-0,-2.533 -2.051,-4.584 -4.582,-4.584" style="fill:rgb(239,76,36);fill-rule:nonzero;"/>
        </g>
        <g transform="matrix(0,-0.569028,-0.569028,0,66.7007,126.037)">
            <path d="M-4.582,-4.584C-7.113,-4.584 -9.166,-2.533 -9.166,0C-9.166,2.531 -7.113,4.582 -4.582,4.582C-2.051,4.582 -0,2.531 -0,0C-0,-2.533 -2.051,-4.584 -4.582,-4.584" style="fill:rgb(239,76,36);fill-rule:nonzero;"/>
        </g>
        <g transform="matrix(0,-0.569028,-0.569028,0,72.8645,131.063)">
            <path d="M-4.582,-4.584C-7.113,-4.584 -9.166,-2.533 -9.166,0C-9.166,2.531 -7.113,4.582 -4.582,4.582C-2.051,4.582 -0,2.531 -0,0C-0,-2.533 -2.051,-4.584 -4.582,-4.584" style="fill:rgb(239,211,205);fill-rule:nonzero;"/>
        </g>
        <g transform="matrix(0,-0.569028,-0.569028,0,79.7878,133.623)">
            <path d="M-4.582,-4.584C-7.113,-4.584 -9.166,-2.533 -9.166,0C-9.166,2.531 -7.113,4.582 -4.582,4.582C-2.051,4.582 -0,2.531 -0,0C-0,-2.533 -2.051,-4.584 -4.582,-4.584" style="fill:rgb(239,76,36);fill-rule:nonzero;"/>
        </g>
        <g transform="matrix(0,-0.569028,-0.569028,0,87.0901,135.71)">
            <path d="M-4.582,-4.584C-7.113,-4.584 -9.166,-2.533 -9.166,0C-9.166,2.531 -7.113,4.582 -4.582,4.582C-2.051,4.582 -0,2.531 -0,0C-0,-2.533 -2.051,-4.584 -4.582,-4.584" style="fill:rgb(239,76,36);fill-rule:nonzero;"/>
        </g>
        <g transform="matrix(0,-0.569028,-0.569028,0,94.6775,136.279)">
            <path d="M-4.582,-4.584C-7.113,-4.584 -9.166,-2.533 -9.166,0C-9.166,2.531 -7.113,4.582 -4.582,4.582C-2.051,4.582 -0,2.531 -0,0C-0,-2.533 -2.051,-4.584 -4.582,-4.584" style="fill:rgb(239,76,36);fill-rule:nonzero;"/>
        </g>
        <g transform="matrix(0,-0.569028,-0.569028,0,102.169,135.615)">
            <path d="M-4.582,-4.584C-7.113,-4.584 -9.166,-2.533 -9.166,0C-9.166,2.531 -7.113,4.582 -4.582,4.582C-2.051,4.582 -0,2.531 -0,0C-0,-2.533 -2.051,-4.584 -4.582,-4.584" style="fill:rgb(239,211,205);fill-rule:nonzero;"/>
        </g>
        <g transform="matrix(0,-0.569028,-0.569028,0,109.472,133.718)">
            <path d="M-4.582,-4.584C-7.113,-4.584 -9.166,-2.533 -9.166,0C-9.166,2.531 -7.113,4.582 -4.582,4.582C-2.051,4.582 -0,2.531 -0,0C-0,-2.533 -2.051,-4.584 -4.582,-4.584" style="fill:rgb(239,76,36);fill-rule:nonzero;"/>
        </g>
        <g transform="matrix(0,-0.569028,-0.569028,0,116.49,130.494)">
            <path d="M-4.582,-4.584C-7.113,-4.584 -9.166,-2.533 -9.166,-0C-9.166,2.53 -7.113,4.582 -4.582,4.582C-2.051,4.582 0,2.53 0,-0C0,-2.533 -2.051,-4.584 -4.582,-4.584" style="fill:rgb(239,76,36);fill-rule:nonzero;"/>
        </g>
        <g transform="matrix(0,-0.569028,-0.569028,0,122.749,126.226)">
            <path d="M-4.582,-4.584C-7.113,-4.584 -9.166,-2.533 -9.166,0C-9.166,2.531 -7.113,4.582 -4.582,4.582C-2.051,4.582 0,2.531 0,0C0,-2.533 -2.051,-4.584 -4.582,-4.584" style="fill:rgb(239,211,205);fill-rule:nonzero;"/>
        </g>
        <g transform="matrix(0,-0.569028,-0.569028,0,128.155,120.915)">
            <path d="M-4.582,-4.584C-7.113,-4.584 -9.166,-2.533 -9.166,0C-9.166,2.531 -7.113,4.582 -4.582,4.582C-2.051,4.582 -0,2.531 -0,0C-0,-2.533 -2.051,-4.584 -4.582,-4.584" style="fill:rgb(239,76,36);fill-rule:nonzero;"/>
        </g>
        <g transform="matrix(0,-0.569028,-0.569028,0,132.327,114.846)">
            <path d="M-4.581,-4.583C-7.112,-4.583 -9.165,-2.532 -9.165,-0.001C-9.165,2.53 -7.112,4.581 -4.581,4.581C-2.05,4.581 0.001,2.53 0.001,-0.001C0.001,-2.532 -2.05,-4.583 -4.581,-4.583" style="fill:rgb(239,76,36);fill-rule:nonzero;"/>
        </g>
        <g transform="matrix(0,-0.569028,-0.569028,0,135.553,107.923)">
            <path d="M-4.581,-4.583C-7.112,-4.583 -9.165,-2.532 -9.165,-0.001C-9.165,2.53 -7.112,4.581 -4.581,4.581C-2.05,4.581 0.001,2.53 0.001,-0.001C0.001,-2.532 -2.05,-4.583 -4.581,-4.583" style="fill:rgb(239,76,36);fill-rule:nonzero;"/>
        </g>
    </g>
</svg>
