<svg width="190" height="190" xmlns="http://www.w3.org/2000/svg" fill-rule="evenodd" clip-rule="evenodd" stroke-linejoin="round" stroke-miterlimit="2"><path d="M151.15 73.257a2.608 2.608 0 11-5.216 0 2.608 2.608 0 015.216 0M153.617 111.382a2.608 2.608 0 11-5.216 0 2.608 2.608 0 015.216 0" fill="#ef4c24" fill-rule="nonzero"/><path d="M150.391 129.59a2.608 2.608 0 11-5.216.001 2.608 2.608 0 015.216 0" fill="#f7a593" fill-rule="nonzero"/><path d="M140.15 103.227a2.608 2.608 0 11-5.217 0 2.608 2.608 0 015.216 0" fill="#efd3cd" fill-rule="nonzero"/><path d="M141.287 95.639a2.608 2.608 0 11-5.216 0 2.608 2.608 0 015.216 0M140.055 88.146a2.608 2.608 0 11-5.217 0 2.608 2.608 0 015.217 0M138.254 80.749a2.608 2.608 0 11-5.216 0 2.608 2.608 0 015.216 0" fill="#ef4c24" fill-rule="nonzero"/><path d="M134.935 74.016a2.608 2.608 0 11-5.217 0 2.608 2.608 0 015.217 0" fill="#f7a593" fill-rule="nonzero"/><path d="M130.667 67.756a2.608 2.608 0 11-5.217 0 2.608 2.608 0 015.217 0M125.357 62.446a2.608 2.608 0 11-5.216 0 2.608 2.608 0 015.216 0M119.193 58.083a2.608 2.608 0 11-5.216 0 2.608 2.608 0 015.216 0M112.27 54.858a2.608 2.608 0 11-5.217 0 2.608 2.608 0 015.217 0" fill="#ef4c24" fill-rule="nonzero"/><path d="M104.967 52.962a2.608 2.608 0 11-5.216 0 2.608 2.608 0 015.216 0" fill="#efd3cd" fill-rule="nonzero"/><path d="M97.475 52.298a2.608 2.608 0 11-5.216 0 2.608 2.608 0 015.216 0M90.078 52.582a2.608 2.608 0 11-5.217 0 2.608 2.608 0 015.217 0" fill="#ef4c24" fill-rule="nonzero"/><path d="M82.585 54.1a2.608 2.608 0 11-5.216 0 2.608 2.608 0 015.216 0" fill="#efd3cd" fill-rule="nonzero"/><path d="M75.757 57.799a2.608 2.608 0 11-5.216 0 2.608 2.608 0 015.216 0" fill="#ef4c24" fill-rule="nonzero"/><path d="M69.593 62.351a2.608 2.608 0 11-5.216 0 2.608 2.608 0 015.216 0" fill="#efd3cd" fill-rule="nonzero"/><path d="M64.188 67.662a2.608 2.608 0 11-5.217 0 2.608 2.608 0 015.217 0" fill="#ef4c24" fill-rule="nonzero"/><path d="M59.73 73.826a2.608 2.608 0 11-5.216 0 2.608 2.608 0 015.216 0" fill="#efd3cd" fill-rule="nonzero"/><path d="M56.506 80.75a2.608 2.608 0 11-5.217 0 2.608 2.608 0 015.217 0" fill="#ef4c24" fill-rule="nonzero"/><path d="M54.514 87.957a2.608 2.608 0 11-5.216 0 2.608 2.608 0 015.216 0" fill="#efd3cd" fill-rule="nonzero"/><path d="M53.945 95.45a2.608 2.608 0 11-5.216 0 2.608 2.608 0 015.216 0M54.514 102.941a2.608 2.608 0 11-5.216 0 2.608 2.608 0 015.216 0" fill="#ef4c24" fill-rule="nonzero"/><path d="M56.506 110.338a2.608 2.608 0 11-5.217 0 2.608 2.608 0 015.217 0" fill="#efd3cd" fill-rule="nonzero"/><path d="M59.73 117.167a2.608 2.608 0 11-5.216 0 2.608 2.608 0 015.216 0M64.093 123.427a2.608 2.608 0 11-5.217 0 2.608 2.608 0 015.217 0M69.309 128.643a2.608 2.608 0 11-5.217 0 2.608 2.608 0 015.217 0" fill="#ef4c24" fill-rule="nonzero"/><path d="M75.473 133.67a2.608 2.608 0 11-5.217 0 2.608 2.608 0 015.217 0" fill="#efd3cd" fill-rule="nonzero"/><path d="M82.396 136.23a2.608 2.608 0 11-5.217 0 2.608 2.608 0 015.217 0M89.698 138.317a2.608 2.608 0 11-5.216 0 2.608 2.608 0 015.216 0M97.286 138.886a2.608 2.608 0 11-5.217 0 2.608 2.608 0 015.217 0" fill="#ef4c24" fill-rule="nonzero"/><path d="M104.778 138.222a2.608 2.608 0 11-5.217 0 2.608 2.608 0 015.217 0" fill="#efd3cd" fill-rule="nonzero"/><path d="M112.08 136.325a2.608 2.608 0 11-5.216 0 2.608 2.608 0 015.216 0M119.098 133.1a2.608 2.608 0 11-5.216 0 2.608 2.608 0 015.216 0" fill="#ef4c24" fill-rule="nonzero"/><path d="M125.357 128.833a2.608 2.608 0 11-5.216 0 2.608 2.608 0 015.216 0" fill="#efd3cd" fill-rule="nonzero"/><path d="M130.763 123.521a2.608 2.608 0 11-5.217 0 2.608 2.608 0 015.217 0M134.934 117.452a2.608 2.608 0 11-5.216.001 2.608 2.608 0 015.216-.001M138.16 110.529a2.608 2.608 0 11-5.216 0 2.608 2.608 0 015.216 0M142.712 116.693a2.608 2.608 0 11-5.216 0 2.608 2.608 0 015.216 0M138.349 124.09a2.608 2.608 0 11-5.216.001 2.608 2.608 0 015.216 0M126.115 136.324a2.608 2.608 0 11-5.216.001 2.608 2.608 0 015.216-.001M140.722 136.798a3.748 3.748 0 11-7.496.002 3.748 3.748 0 017.496-.002M147.167 99.906a2.608 2.608 0 11-5.216.001 2.608 2.608 0 015.216 0M147.263 91.182a2.608 2.608 0 11-5.216 0 2.608 2.608 0 015.216 0" fill="#ef4c24" fill-rule="nonzero"/><path d="M145.651 82.646a2.608 2.608 0 11-5.216.001 2.608 2.608 0 015.216 0" fill="#efd3cd" fill-rule="nonzero"/><path d="M138.349 66.998a2.608 2.608 0 11-5.216 0 2.608 2.608 0 015.216 0" fill="#ef4c24" fill-rule="nonzero"/><path d="M126.115 54.764a2.608 2.608 0 11-5.216 0 2.608 2.608 0 015.216 0" fill="#f7a593" fill-rule="nonzero"/><path d="M133.132 44.996a2.608 2.608 0 11-5.217 0 2.608 2.608 0 015.217 0M118.432 140.592a2.608 2.608 0 11-5.216.001 2.608 2.608 0 015.216 0M110.276 143.532a2.608 2.608 0 11-5.216 0 2.608 2.608 0 015.216 0M112.363 151.025a2.608 2.608 0 11-5.216 0 2.608 2.608 0 015.216 0" fill="#ef4c24" fill-rule="nonzero"/><path d="M101.645 145.05a2.608 2.608 0 11-5.215.001 2.608 2.608 0 015.215-.001" fill="#f7a593" fill-rule="nonzero"/><path d="M92.92 145.145a2.608 2.608 0 11-5.215 0 2.608 2.608 0 015.216 0M84.385 143.626a2.608 2.608 0 11-5.216.001 2.608 2.608 0 015.216 0M74.807 147.04a2.608 2.608 0 11-5.216.002 2.608 2.608 0 015.216-.001M110.468 47.46a2.608 2.608 0 11-5.216.001 2.608 2.608 0 015.216 0M93.302 45.849a2.608 2.608 0 11-5.216 0 2.608 2.608 0 015.216 0" fill="#ef4c24" fill-rule="nonzero"/><path d="M81.857 33.805a3.87 3.87 0 11-7.741 0 3.87 3.87 0 017.741 0M76.421 49.263a2.608 2.608 0 11-5.216 0 2.608 2.608 0 015.216 0" fill="#f7a593" fill-rule="nonzero"/><path d="M68.834 54.764a2.608 2.608 0 11-5.216 0 2.608 2.608 0 015.216 0M62.1 60.264a2.608 2.608 0 11-5.216 0 2.608 2.608 0 015.217 0M61.531 51.16a2.608 2.608 0 11-5.216 0 2.608 2.608 0 015.216 0M52.237 74.3a2.608 2.608 0 11-5.216 0 2.608 2.608 0 015.216 0M49.202 82.551a2.608 2.608 0 11-5.217 0 2.608 2.608 0 015.217 0" fill="#ef4c24" fill-rule="nonzero"/><path d="M47.685 91.086a2.608 2.608 0 11-5.217 0 2.608 2.608 0 015.217 0" fill="#f7a593" fill-rule="nonzero"/><path d="M49.107 108.346a2.608 2.608 0 11-5.216 0 2.608 2.608 0 015.216 0M52.142 116.408a2.608 2.608 0 11-5.216 0 2.608 2.608 0 015.216 0" fill="#ef4c24" fill-rule="nonzero"/><path d="M56.505 123.9a2.608 2.608 0 11-5.217 0 2.608 2.608 0 015.217 0" fill="#f7a593" fill-rule="nonzero"/><path d="M62.1 130.54a2.608 2.608 0 11-5.216 0 2.608 2.608 0 015.216 0M68.739 136.325a2.608 2.608 0 11-5.217 0 2.608 2.608 0 015.217 0M51.004 128.926a2.608 2.608 0 11-5.216 0 2.608 2.608 0 015.216 0M58.496 136.609a2.608 2.608 0 11-5.216 0 2.608 2.608 0 015.216 0M44.46 135.281a2.608 2.608 0 11-5.216 0 2.608 2.608 0 015.216 0" fill="#ef4c24" fill-rule="nonzero"/><path d="M43.227 113.658a2.608 2.608 0 11-5.216 0 2.608 2.608 0 015.216 0" fill="#efd3cd" fill-rule="nonzero"/><path d="M41.045 103.036a2.608 2.608 0 11-5.216 0 2.608 2.608 0 015.216 0M42.684 57.916a2.608 2.608 0 104.796 2.05 2.608 2.608 0 00-4.796-2.05M28.647 91.134a2.609 2.609 0 104.798 2.05 2.609 2.609 0 00-4.798-2.05M162.283 102.717a2.608 2.608 0 11-5.215 0 2.608 2.608 0 015.215 0" fill="#ef4c24" fill-rule="nonzero"/><g><path d="M187.663 111.261a5.353 5.353 0 11-10.707.001 5.353 5.353 0 0110.707 0" fill="#efd3cd" fill-rule="nonzero"/><path d="M189.998 95.688a5.353 5.353 0 11-10.707.001 5.353 5.353 0 0110.707 0M187.47 80.31a5.353 5.353 0 11-10.707 0 5.353 5.353 0 0110.707 0M183.775 65.126a5.353 5.353 0 11-10.707.001 5.353 5.353 0 0110.707-.001" fill="#ef4c24" fill-rule="nonzero"/><path d="M176.96 51.305a5.353 5.353 0 11-10.707.001 5.353 5.353 0 0110.707 0" fill="#f7a593" fill-rule="nonzero"/><path d="M168.2 38.458a5.353 5.353 0 11-10.707 0 5.353 5.353 0 0110.707 0M157.3 27.557a5.353 5.353 0 11-10.706 0 5.353 5.353 0 0110.707 0M144.649 18.602a5.353 5.353 0 11-10.707.001 5.353 5.353 0 0110.707-.001M130.439 11.983a5.353 5.353 0 11-10.707.001 5.353 5.353 0 0110.707 0" fill="#ef4c24" fill-rule="nonzero"/><path d="M115.449 8.091a5.353 5.353 0 11-10.707.001 5.353 5.353 0 0110.707 0" fill="#efd3cd" fill-rule="nonzero"/><path d="M100.071 6.727a5.353 5.353 0 11-10.707.001 5.353 5.353 0 0110.707 0M84.888 7.311a5.353 5.353 0 11-10.707.001 5.353 5.353 0 0110.707 0" fill="#ef4c24" fill-rule="nonzero"/><path d="M69.509 10.427a5.353 5.353 0 11-10.707.001 5.353 5.353 0 0110.707 0" fill="#efd3cd" fill-rule="nonzero"/><path d="M55.493 18.02a5.353 5.353 0 11-10.707 0 5.353 5.353 0 0110.707 0" fill="#ef4c24" fill-rule="nonzero"/><path d="M42.842 27.363a5.353 5.353 0 11-10.707.001 5.353 5.353 0 0110.707-.001" fill="#efd3cd" fill-rule="nonzero"/><path d="M31.746 38.264a5.353 5.353 0 11-10.707 0 5.353 5.353 0 0110.707 0" fill="#ef4c24" fill-rule="nonzero"/><path d="M22.596 50.916a5.353 5.353 0 11-10.707.001 5.353 5.353 0 0110.707 0" fill="#efd3cd" fill-rule="nonzero"/><path d="M15.979 65.128a5.353 5.353 0 11-10.707.001 5.353 5.353 0 0110.707-.001" fill="#ef4c24" fill-rule="nonzero"/><path d="M11.89 79.922a5.353 5.353 0 11-10.706 0 5.353 5.353 0 0110.707 0" fill="#efd3cd" fill-rule="nonzero"/><path d="M10.723 95.3a5.353 5.353 0 11-10.707 0 5.353 5.353 0 0110.707 0M11.89 110.678a5.353 5.353 0 11-10.706.001 5.353 5.353 0 0110.707 0" fill="#ef4c24" fill-rule="nonzero"/><path d="M15.979 125.861a5.353 5.353 0 11-10.707.001 5.353 5.353 0 0110.707 0" fill="#efd3cd" fill-rule="nonzero"/><path d="M22.596 139.878a5.353 5.353 0 11-10.707.001 5.353 5.353 0 0110.707 0M31.551 152.725a5.353 5.353 0 11-10.707.001 5.353 5.353 0 0110.707 0M42.258 163.433a5.353 5.353 0 11-10.707.001 5.353 5.353 0 0110.707 0" fill="#ef4c24" fill-rule="nonzero"/><path d="M54.91 173.75a5.353 5.353 0 11-10.708 0 5.353 5.353 0 0110.707 0" fill="#efd3cd" fill-rule="nonzero"/><path d="M69.12 179.004a5.353 5.353 0 11-10.707.001 5.353 5.353 0 0110.707 0M84.109 183.288a5.353 5.353 0 11-10.707 0 5.353 5.353 0 0110.707 0M99.682 184.456a5.353 5.353 0 11-10.707 0 5.353 5.353 0 0110.707 0" fill="#ef4c24" fill-rule="nonzero"/><path d="M115.059 183.093a5.353 5.353 0 11-10.707 0 5.353 5.353 0 0110.707 0" fill="#efd3cd" fill-rule="nonzero"/><path d="M130.049 179.2a5.353 5.353 0 11-10.707 0 5.353 5.353 0 0110.707 0M144.454 172.582a5.353 5.353 0 11-10.707 0 5.353 5.353 0 0110.707 0" fill="#ef4c24" fill-rule="nonzero"/><path d="M157.3 163.821a5.353 5.353 0 11-10.706.001 5.353 5.353 0 0110.707 0" fill="#efd3cd" fill-rule="nonzero"/><path d="M168.397 152.92a5.353 5.353 0 11-10.707.001 5.353 5.353 0 0110.707 0M176.96 140.462a5.353 5.353 0 01-5.352 5.354 5.353 5.353 0 010-10.706 5.351 5.351 0 015.351 5.352M183.58 126.252a5.353 5.353 0 01-5.35 5.354 5.353 5.353 0 010-10.706 5.351 5.351 0 015.35 5.352" fill="#ef4c24" fill-rule="nonzero"/></g></svg>